<?xml version="1.0" encoding="UTF-8" standalone="no"?>
<!DOCTYPE svg PUBLIC "-//W3C//DTD SVG 1.1//EN"
 "http://www.w3.org/Graphics/SVG/1.1/DTD/svg11.dtd">
<!-- Generated by graphviz version 2.40.1 (20161225.0304)
 -->
<!-- Title: state transitions Pages: 1 -->
<svg width="422pt" height="270pt"
 viewBox="0.00 0.00 422.00 270.00" xmlns="http://www.w3.org/2000/svg" xmlns:xlink="http://www.w3.org/1999/xlink">
<g id="graph0" class="graph" transform="scale(1 1) rotate(0) translate(4 266)">
<title>state transitions</title>
<polygon fill="#ffffff" stroke="transparent" points="-4,4 -4,-266 418,-266 418,4 -4,4"/>
<g id="clust1" class="cluster state regular">
<title>cluster_rd_sta</title>
<path fill="none" stroke="#000000" stroke-width="2" d="M20,-8C20,-8 394,-8 394,-8 400,-8 406,-14 406,-20 406,-20 406,-242 406,-242 406,-248 400,-254 394,-254 394,-254 20,-254 20,-254 14,-254 8,-248 8,-242 8,-242 8,-20 8,-20 8,-14 14,-8 20,-8"/>
<text text-anchor="start" x="190.829" y="-235.2" font-family="Helvetica,sans-Serif" font-size="12.00" fill="#000000">rd_sta</text>
</g>
<!-- rd_sta -->
<!-- S0 -->
<g id="node2" class="node state regular">
<title>S0</title>
<polygon fill="#ffffff" fill-opacity="0.003922" stroke="transparent" stroke-width="2" points="202,-216 146,-216 146,-180 202,-180 202,-216"/>
<text text-anchor="start" x="166.6632" y="-194.2" font-family="Helvetica,sans-Serif" font-size="12.00" fill="#000000">S0</text>
<path fill="none" stroke="#000000" stroke-width="2" d="M158.3333,-181C158.3333,-181 189.6667,-181 189.6667,-181 195.3333,-181 201,-186.6667 201,-192.3333 201,-192.3333 201,-203.6667 201,-203.6667 201,-209.3333 195.3333,-215 189.6667,-215 189.6667,-215 158.3333,-215 158.3333,-215 152.6667,-215 147,-209.3333 147,-203.6667 147,-203.6667 147,-192.3333 147,-192.3333 147,-186.6667 152.6667,-181 158.3333,-181"/>
</g>
<!-- S0&#45;&gt;S0 -->
<g id="edge2" class="edge transition">
<title>S0&#45;&gt;S0</title>
<path fill="none" stroke="#000000" d="M202.0183,-202.8247C213.888,-203.1883 224,-201.5801 224,-198 224,-195.5387 219.2205,-194.0094 212.3762,-193.4121"/>
<polygon fill="#000000" stroke="#000000" points="212.0957,-189.9049 202.0183,-193.1753 211.9356,-196.903 212.0957,-189.9049"/>
<text text-anchor="start" x="224" y="-195" font-family="Helvetica,sans-Serif" font-size="10.00" fill="#000000">not (~addr_fifo_empty) &#160;&#160;</text>
</g>
<!-- S1 -->
<g id="node3" class="node state regular">
<title>S1</title>
<polygon fill="#ffffff" fill-opacity="0.003922" stroke="transparent" stroke-width="2" points="72,-134 16,-134 16,-98 72,-98 72,-134"/>
<text text-anchor="start" x="36.6632" y="-112.2" font-family="Helvetica,sans-Serif" font-size="12.00" fill="#000000">S1</text>
<path fill="none" stroke="#000000" stroke-width="2" d="M28.3333,-99C28.3333,-99 59.6667,-99 59.6667,-99 65.3333,-99 71,-104.6667 71,-110.3333 71,-110.3333 71,-121.6667 71,-121.6667 71,-127.3333 65.3333,-133 59.6667,-133 59.6667,-133 28.3333,-133 28.3333,-133 22.6667,-133 17,-127.3333 17,-121.6667 17,-121.6667 17,-110.3333 17,-110.3333 17,-104.6667 22.6667,-99 28.3333,-99"/>
</g>
<!-- S0&#45;&gt;S1 -->
<g id="edge1" class="edge transition">
<title>S0&#45;&gt;S1</title>
<path fill="none" stroke="#000000" d="M145.7354,-192.2419C116.4746,-185.7694 73.3576,-174.6357 61.138,-163 55.8132,-157.9297 52.136,-151.0731 49.599,-144.1661"/>
<polygon fill="#000000" stroke="#000000" points="52.8443,-142.7999 46.6387,-134.2126 46.1347,-144.7955 52.8443,-142.7999"/>
<text text-anchor="start" x="61" y="-154" font-family="Helvetica,sans-Serif" font-size="10.00" fill="#000000">~addr_fifo_empty &#160;&#160;</text>
</g>
<!-- S1&#45;&gt;S0 -->
<g id="edge4" class="edge transition">
<title>S1&#45;&gt;S0</title>
<path fill="none" stroke="#000000" d="M72.3499,-119.7905C94.9697,-124.0663 126.3461,-132.9429 148,-151 154.2038,-156.1733 159.1862,-163.2271 163.0634,-170.2963"/>
<polygon fill="#000000" stroke="#000000" points="160.1518,-172.3119 167.6763,-179.7707 166.4455,-169.2475 160.1518,-172.3119"/>
<text text-anchor="start" x="158" y="-154" font-family="Helvetica,sans-Serif" font-size="10.00" fill="#000000">addr_fifo_empty &#160;&#160;</text>
</g>
<!-- S1&#45;&gt;S1 -->
<g id="edge5" class="edge transition">
<title>S1&#45;&gt;S1</title>
<path fill="none" stroke="#000000" d="M72.0183,-120.8247C83.888,-121.1883 94,-119.5801 94,-116 94,-113.5387 89.2205,-112.0094 82.3762,-111.4121"/>
<polygon fill="#000000" stroke="#000000" points="82.0957,-107.9049 72.0183,-111.1753 81.9356,-114.903 82.0957,-107.9049"/>
<text text-anchor="start" x="94" y="-119" font-family="Helvetica,sans-Serif" font-size="10.00" fill="#000000">not ((~fifo_blank_valid) &amp; (data_empty)) &#160;&#160;</text>
<text text-anchor="start" x="94" y="-107" font-family="Helvetica,sans-Serif" font-size="10.00" fill="#000000">not (addr_fifo_empty) &#160;&#160;</text>
</g>
<!-- S2 -->
<g id="node4" class="node state regular">
<title>S2</title>
<polygon fill="#ffffff" fill-opacity="0.003922" stroke="transparent" stroke-width="2" points="271,-52 215,-52 215,-16 271,-16 271,-52"/>
<text text-anchor="start" x="235.6632" y="-30.2" font-family="Helvetica,sans-Serif" font-size="12.00" fill="#000000">S2</text>
<path fill="none" stroke="#000000" stroke-width="2" d="M227.3333,-17C227.3333,-17 258.6667,-17 258.6667,-17 264.3333,-17 270,-22.6667 270,-28.3333 270,-28.3333 270,-39.6667 270,-39.6667 270,-45.3333 264.3333,-51 258.6667,-51 258.6667,-51 227.3333,-51 227.3333,-51 221.6667,-51 216,-45.3333 216,-39.6667 216,-39.6667 216,-28.3333 216,-28.3333 216,-22.6667 221.6667,-17 227.3333,-17"/>
</g>
<!-- S1&#45;&gt;S2 -->
<g id="edge3" class="edge transition">
<title>S1&#45;&gt;S2</title>
<path fill="none" stroke="#000000" d="M43.7794,-97.5875C44.6675,-87.7877 47.4842,-76.2881 55.134,-69 76.1138,-49.0121 155.934,-40.0056 204.5263,-36.3006"/>
<polygon fill="#000000" stroke="#000000" points="204.9604,-39.7785 214.6828,-35.5684 204.457,-32.7966 204.9604,-39.7785"/>
<text text-anchor="start" x="55" y="-72" font-family="Helvetica,sans-Serif" font-size="10.00" fill="#000000">(~fifo_blank_valid) &amp; (data_empty) &#160;&#160;</text>
</g>
<!-- S2&#45;&gt;S0 -->
<g id="edge6" class="edge transition">
<title>S2&#45;&gt;S0</title>
<path fill="none" stroke="#000000" d="M271.1529,-38.4131C297.2486,-44.0855 330.9367,-56.3096 323,-81 306.4836,-132.3811 249.9214,-165.9643 211.4374,-183.4553"/>
<polygon fill="#000000" stroke="#000000" points="209.8327,-180.3371 202.0782,-187.5564 212.6422,-186.7485 209.8327,-180.3371"/>
<text text-anchor="start" x="315" y="-119" font-family="Helvetica,sans-Serif" font-size="10.00" fill="#000000">addr_fifo_empty &#160;&#160;</text>
<text text-anchor="start" x="315" y="-107" font-family="Helvetica,sans-Serif" font-size="10.00" fill="#000000">~data_empty &#160;&#160;</text>
</g>
<!-- S2&#45;&gt;S1 -->
<g id="edge7" class="edge transition">
<title>S2&#45;&gt;S1</title>
<path fill="none" stroke="#000000" d="M237.22,-52.2074C233.1266,-62.1933 226.6266,-73.9433 217,-81 196.0076,-96.3884 126.6937,-106.766 82.4346,-112.0067"/>
<polygon fill="#000000" stroke="#000000" points="81.8468,-108.5511 72.3109,-113.168 82.6446,-115.5055 81.8468,-108.5511"/>
<text text-anchor="start" x="228" y="-72" font-family="Helvetica,sans-Serif" font-size="10.00" fill="#000000">not (~data_empty) &#160;&#160;</text>
</g>
</g>
</svg>
