<?xml version="1.0" encoding="UTF-8" standalone="no"?>
<!DOCTYPE svg PUBLIC "-//W3C//DTD SVG 1.1//EN"
 "http://www.w3.org/Graphics/SVG/1.1/DTD/svg11.dtd">
<!-- Generated by graphviz version 2.40.1 (20161225.0304)
 -->
<!-- Title: state transitions Pages: 1 -->
<svg width="498pt" height="270pt"
 viewBox="0.00 0.00 497.91 270.00" xmlns="http://www.w3.org/2000/svg" xmlns:xlink="http://www.w3.org/1999/xlink">
<g id="graph0" class="graph" transform="scale(1 1) rotate(0) translate(4 266)">
<title>state transitions</title>
<polygon fill="#ffffff" stroke="transparent" points="-4,4 -4,-266 493.912,-266 493.912,4 -4,4"/>
<g id="clust1" class="cluster state regular">
<title>cluster_rotate_sta</title>
<path fill="none" stroke="#000000" stroke-width="2" d="M20,-8C20,-8 432,-8 432,-8 438,-8 444,-14 444,-20 444,-20 444,-242 444,-242 444,-248 438,-254 432,-254 432,-254 20,-254 20,-254 14,-254 8,-248 8,-242 8,-242 8,-20 8,-20 8,-14 14,-8 20,-8"/>
<text text-anchor="start" x="199.8234" y="-235.2" font-family="Helvetica,sans-Serif" font-size="12.00" fill="#000000">rotate_sta</text>
</g>
<!-- rotate_sta -->
<!-- IDLE -->
<g id="node2" class="node state regular">
<title>IDLE</title>
<polygon fill="#ffffff" fill-opacity="0.003922" stroke="transparent" stroke-width="2" points="114,-216 58,-216 58,-180 114,-180 114,-216"/>
<text text-anchor="start" x="72.6644" y="-194.2" font-family="Helvetica,sans-Serif" font-size="12.00" fill="#000000">IDLE</text>
<path fill="none" stroke="#000000" stroke-width="2" d="M70.3333,-181C70.3333,-181 101.6667,-181 101.6667,-181 107.3333,-181 113,-186.6667 113,-192.3333 113,-192.3333 113,-203.6667 113,-203.6667 113,-209.3333 107.3333,-215 101.6667,-215 101.6667,-215 70.3333,-215 70.3333,-215 64.6667,-215 59,-209.3333 59,-203.6667 59,-203.6667 59,-192.3333 59,-192.3333 59,-186.6667 64.6667,-181 70.3333,-181"/>
</g>
<!-- IDLE&#45;&gt;IDLE -->
<g id="edge2" class="edge transition">
<title>IDLE&#45;&gt;IDLE</title>
<path fill="none" stroke="#000000" d="M114.0183,-202.8247C125.888,-203.1883 136,-201.5801 136,-198 136,-195.5387 131.2205,-194.0094 124.3762,-193.4121"/>
<polygon fill="#000000" stroke="#000000" points="124.0957,-189.9049 114.0183,-193.1753 123.9356,-196.903 124.0957,-189.9049"/>
<text text-anchor="start" x="136" y="-195" font-family="Helvetica,sans-Serif" font-size="10.00" fill="#000000">not (rotate_en &amp; addr_fifo_empty) &#160;&#160;</text>
</g>
<!-- WAIT -->
<g id="node3" class="node state regular">
<title>WAIT</title>
<polygon fill="#ffffff" fill-opacity="0.003922" stroke="transparent" stroke-width="2" points="72,-134 16,-134 16,-98 72,-98 72,-134"/>
<text text-anchor="start" x="29.0024" y="-112.2" font-family="Helvetica,sans-Serif" font-size="12.00" fill="#000000">WAIT</text>
<path fill="none" stroke="#000000" stroke-width="2" d="M28.3333,-99C28.3333,-99 59.6667,-99 59.6667,-99 65.3333,-99 71,-104.6667 71,-110.3333 71,-110.3333 71,-121.6667 71,-121.6667 71,-127.3333 65.3333,-133 59.6667,-133 59.6667,-133 28.3333,-133 28.3333,-133 22.6667,-133 17,-127.3333 17,-121.6667 17,-121.6667 17,-110.3333 17,-110.3333 17,-104.6667 22.6667,-99 28.3333,-99"/>
</g>
<!-- IDLE&#45;&gt;WAIT -->
<g id="edge1" class="edge transition">
<title>IDLE&#45;&gt;WAIT</title>
<path fill="none" stroke="#000000" d="M76.6788,-179.8015C71.1869,-169.0791 64.1323,-155.306 57.9843,-143.3026"/>
<polygon fill="#000000" stroke="#000000" points="60.9691,-141.4524 53.2951,-134.1476 54.7388,-144.6436 60.9691,-141.4524"/>
<text text-anchor="start" x="67" y="-154" font-family="Helvetica,sans-Serif" font-size="10.00" fill="#000000">rotate_en &amp; addr_fifo_empty &#160;&#160;</text>
</g>
<!-- WAIT&#45;&gt;WAIT -->
<g id="edge4" class="edge transition">
<title>WAIT&#45;&gt;WAIT</title>
<path fill="none" stroke="#000000" d="M72.0183,-120.8247C83.888,-121.1883 94,-119.5801 94,-116 94,-113.5387 89.2205,-112.0094 82.3762,-111.4121"/>
<polygon fill="#000000" stroke="#000000" points="82.0957,-107.9049 72.0183,-111.1753 81.9356,-114.903 82.0957,-107.9049"/>
<text text-anchor="start" x="94" y="-113" font-family="Helvetica,sans-Serif" font-size="10.00" fill="#000000">not (wr_count &lt; (2047 &#45; MIN_NUM)) &#160;&#160;</text>
</g>
<!-- CNT -->
<g id="node4" class="node state regular">
<title>CNT</title>
<polygon fill="#ffffff" fill-opacity="0.003922" stroke="transparent" stroke-width="2" points="255,-52 199,-52 199,-16 255,-16 255,-52"/>
<text text-anchor="start" x="214.6718" y="-30.2" font-family="Helvetica,sans-Serif" font-size="12.00" fill="#000000">CNT</text>
<path fill="none" stroke="#000000" stroke-width="2" d="M211.3333,-17C211.3333,-17 242.6667,-17 242.6667,-17 248.3333,-17 254,-22.6667 254,-28.3333 254,-28.3333 254,-39.6667 254,-39.6667 254,-45.3333 248.3333,-51 242.6667,-51 242.6667,-51 211.3333,-51 211.3333,-51 205.6667,-51 200,-45.3333 200,-39.6667 200,-39.6667 200,-28.3333 200,-28.3333 200,-22.6667 205.6667,-17 211.3333,-17"/>
</g>
<!-- WAIT&#45;&gt;CNT -->
<g id="edge3" class="edge transition">
<title>WAIT&#45;&gt;CNT</title>
<path fill="none" stroke="#000000" d="M43.8847,-97.6329C44.8173,-87.8473 47.666,-76.3468 55.269,-69 73.9053,-50.9916 143.7766,-41.4522 188.4473,-37.0847"/>
<polygon fill="#000000" stroke="#000000" points="189.0336,-40.5453 198.6656,-36.1323 188.3839,-33.5755 189.0336,-40.5453"/>
<text text-anchor="start" x="55" y="-72" font-family="Helvetica,sans-Serif" font-size="10.00" fill="#000000">wr_count &lt; (2047 &#45; MIN_NUM) &#160;&#160;</text>
</g>
<!-- CNT&#45;&gt;IDLE -->
<g id="edge5" class="edge transition">
<title>CNT&#45;&gt;IDLE</title>
<path fill="none" stroke="#000000" d="M255.0797,-36.6586C293.2959,-40.9238 358.5948,-50.7333 373,-69 376.3025,-73.1878 375.7865,-76.4525 373,-81 345.8031,-125.3849 195.7736,-169.5118 124.1206,-188.4166"/>
<polygon fill="#000000" stroke="#000000" points="122.9341,-185.1089 114.1415,-191.0199 124.7011,-191.8822 122.9341,-185.1089"/>
<text text-anchor="start" x="356" y="-119" font-family="Helvetica,sans-Serif" font-size="10.00" fill="#000000">cnt_h &gt;= (IMAGE_H / 2 &#45; 1) &#160;&#160;</text>
<text text-anchor="start" x="356" y="-107" font-family="Helvetica,sans-Serif" font-size="10.00" fill="#000000">cnt_w &gt;= (IMAGE_W / 2 &#45; 1) &#160;&#160;</text>
</g>
<!-- CNT&#45;&gt;WAIT -->
<g id="edge6" class="edge transition">
<title>CNT&#45;&gt;WAIT</title>
<path fill="none" stroke="#000000" d="M221.1674,-52.1365C217.0565,-62.0987 210.5565,-73.8487 201,-81 182.5399,-94.8141 122.5735,-105.3693 82.3263,-111.1223"/>
<polygon fill="#000000" stroke="#000000" points="81.7278,-107.6717 72.3046,-112.5145 82.6911,-114.6052 81.7278,-107.6717"/>
<text text-anchor="start" x="211" y="-72" font-family="Helvetica,sans-Serif" font-size="10.00" fill="#000000">not (cnt_w &gt;= (IMAGE_W / 2 &#45; 1)) &#160;&#160;</text>
</g>
</g>
</svg>
