<?xml version="1.0" encoding="UTF-8" standalone="no"?>
<!DOCTYPE svg PUBLIC "-//W3C//DTD SVG 1.1//EN"
 "http://www.w3.org/Graphics/SVG/1.1/DTD/svg11.dtd">
<!-- Generated by graphviz version 2.40.1 (20161225.0304)
 -->
<!-- Title: state transitions Pages: 1 -->
<svg width="969pt" height="388pt"
 viewBox="0.00 0.00 969.03 388.00" xmlns="http://www.w3.org/2000/svg" xmlns:xlink="http://www.w3.org/1999/xlink">
<g id="graph0" class="graph" transform="scale(1 1) rotate(0) translate(4 384)">
<title>state transitions</title>
<polygon fill="#ffffff" stroke="transparent" points="-4,4 -4,-384 965.034,-384 965.034,4 -4,4"/>
<g id="clust1" class="cluster state regular">
<title>cluster_ram_sta</title>
<path fill="none" stroke="#000000" stroke-width="2" d="M20,-8C20,-8 884,-8 884,-8 890,-8 896,-14 896,-20 896,-20 896,-360 896,-360 896,-366 890,-372 884,-372 884,-372 20,-372 20,-372 14,-372 8,-366 8,-360 8,-360 8,-20 8,-20 8,-14 14,-8 20,-8"/>
<text text-anchor="start" x="430.8316" y="-353.2" font-family="Helvetica,sans-Serif" font-size="12.00" fill="#000000">ram_sta</text>
</g>
<!-- ram_sta -->
<!-- 4&#39;b0001 -->
<g id="node2" class="node state regular">
<title>4&#39;b0001</title>
<polygon fill="#ffffff" fill-opacity="0.003922" stroke="transparent" stroke-width="2" points="167,-334 103,-334 103,-298 167,-298 167,-334"/>
<text text-anchor="start" x="113.6622" y="-312.2" font-family="Helvetica,sans-Serif" font-size="12.00" fill="#000000">4&#39;b0001</text>
<path fill="none" stroke="#000000" stroke-width="2" d="M115.3333,-299C115.3333,-299 154.6667,-299 154.6667,-299 160.3333,-299 166,-304.6667 166,-310.3333 166,-310.3333 166,-321.6667 166,-321.6667 166,-327.3333 160.3333,-333 154.6667,-333 154.6667,-333 115.3333,-333 115.3333,-333 109.6667,-333 104,-327.3333 104,-321.6667 104,-321.6667 104,-310.3333 104,-310.3333 104,-304.6667 109.6667,-299 115.3333,-299"/>
</g>
<!-- 4&#39;b0001&#45;&gt;4&#39;b0001 -->
<g id="edge2" class="edge transition">
<title>4&#39;b0001&#45;&gt;4&#39;b0001</title>
<path fill="none" stroke="#000000" d="M167.1538,-320.8643C179.1365,-321.0238 189,-319.4023 189,-316 189,-313.6609 184.3379,-312.1635 177.5304,-311.5079"/>
<polygon fill="#000000" stroke="#000000" points="177.2729,-307.9966 167.1538,-311.1357 177.0219,-314.9921 177.2729,-307.9966"/>
<text text-anchor="start" x="189" y="-319" font-family="Helvetica,sans-Serif" font-size="10.00" fill="#000000">not (((wr_addr0 == IMAGE_W &#45; 1) || (data_half_valid &amp;&amp; (wr_addr0 == IMAGE_W / 2 &#45; 1))) &amp;&amp; &#160;&#160;</text>
<text text-anchor="start" x="189" y="-307" font-family="Helvetica,sans-Serif" font-size="10.00" fill="#000000">(data_in_valid0)) &#160;&#160;</text>
</g>
<!-- 4&#39;b0010 -->
<g id="node3" class="node state regular">
<title>4&#39;b0010</title>
<polygon fill="#ffffff" fill-opacity="0.003922" stroke="transparent" stroke-width="2" points="80,-240 16,-240 16,-204 80,-204 80,-240"/>
<text text-anchor="start" x="26.6622" y="-218.2" font-family="Helvetica,sans-Serif" font-size="12.00" fill="#000000">4&#39;b0010</text>
<path fill="none" stroke="#000000" stroke-width="2" d="M28.3333,-205C28.3333,-205 67.6667,-205 67.6667,-205 73.3333,-205 79,-210.6667 79,-216.3333 79,-216.3333 79,-227.6667 79,-227.6667 79,-233.3333 73.3333,-239 67.6667,-239 67.6667,-239 28.3333,-239 28.3333,-239 22.6667,-239 17,-233.3333 17,-227.6667 17,-227.6667 17,-216.3333 17,-216.3333 17,-210.6667 22.6667,-205 28.3333,-205"/>
</g>
<!-- 4&#39;b0001&#45;&gt;4&#39;b0010 -->
<g id="edge1" class="edge transition">
<title>4&#39;b0001&#45;&gt;4&#39;b0010</title>
<path fill="none" stroke="#000000" d="M118.2255,-297.8759C104.9862,-283.5713 86.3545,-263.4405 71.6089,-247.5084"/>
<polygon fill="#000000" stroke="#000000" points="74.0842,-245.0302 64.723,-240.0685 68.9469,-249.785 74.0842,-245.0302"/>
<text text-anchor="start" x="102" y="-272" font-family="Helvetica,sans-Serif" font-size="10.00" fill="#000000">((wr_addr0 == IMAGE_W &#45; 1) || (data_half_valid &amp;&amp; (wr_addr0 == IMAGE_W / 2 &#45; 1))) &amp;&amp; &#160;&#160;</text>
<text text-anchor="start" x="102" y="-260" font-family="Helvetica,sans-Serif" font-size="10.00" fill="#000000">(data_in_valid0) &#160;&#160;</text>
</g>
<!-- 4&#39;b0010&#45;&gt;4&#39;b0010 -->
<g id="edge4" class="edge transition">
<title>4&#39;b0010&#45;&gt;4&#39;b0010</title>
<path fill="none" stroke="#000000" d="M80.1538,-226.8643C92.1365,-227.0238 102,-225.4023 102,-222 102,-219.6609 97.3379,-218.1635 90.5304,-217.5079"/>
<polygon fill="#000000" stroke="#000000" points="90.2729,-213.9966 80.1538,-217.1357 90.0219,-220.9921 90.2729,-213.9966"/>
<text text-anchor="start" x="102" y="-225" font-family="Helvetica,sans-Serif" font-size="10.00" fill="#000000">not (((wr_addr1 == IMAGE_W &#45; 1) || (data_half_valid &amp;&amp; (wr_addr1 == IMAGE_W / 2 &#45; 1))) &amp;&amp; &#160;&#160;</text>
<text text-anchor="start" x="102" y="-213" font-family="Helvetica,sans-Serif" font-size="10.00" fill="#000000">(data_in_valid0)) &#160;&#160;</text>
</g>
<!-- 4&#39;b0100 -->
<g id="node4" class="node state regular">
<title>4&#39;b0100</title>
<polygon fill="#ffffff" fill-opacity="0.003922" stroke="transparent" stroke-width="2" points="80,-146 16,-146 16,-110 80,-110 80,-146"/>
<text text-anchor="start" x="26.6622" y="-124.2" font-family="Helvetica,sans-Serif" font-size="12.00" fill="#000000">4&#39;b0100</text>
<path fill="none" stroke="#000000" stroke-width="2" d="M28.3333,-111C28.3333,-111 67.6667,-111 67.6667,-111 73.3333,-111 79,-116.6667 79,-122.3333 79,-122.3333 79,-133.6667 79,-133.6667 79,-139.3333 73.3333,-145 67.6667,-145 67.6667,-145 28.3333,-145 28.3333,-145 22.6667,-145 17,-139.3333 17,-133.6667 17,-133.6667 17,-122.3333 17,-122.3333 17,-116.6667 22.6667,-111 28.3333,-111"/>
</g>
<!-- 4&#39;b0010&#45;&gt;4&#39;b0100 -->
<g id="edge3" class="edge transition">
<title>4&#39;b0010&#45;&gt;4&#39;b0100</title>
<path fill="none" stroke="#000000" d="M48,-203.8759C48,-190.3516 48,-171.6192 48,-156.1514"/>
<polygon fill="#000000" stroke="#000000" points="51.5001,-156.0685 48,-146.0685 44.5001,-156.0685 51.5001,-156.0685"/>
<text text-anchor="start" x="48" y="-178" font-family="Helvetica,sans-Serif" font-size="10.00" fill="#000000">((wr_addr1 == IMAGE_W &#45; 1) || (data_half_valid &amp;&amp; (wr_addr1 == IMAGE_W / 2 &#45; 1))) &amp;&amp; &#160;&#160;</text>
<text text-anchor="start" x="48" y="-166" font-family="Helvetica,sans-Serif" font-size="10.00" fill="#000000">(data_in_valid0) &#160;&#160;</text>
</g>
<!-- 4&#39;b0100&#45;&gt;4&#39;b0100 -->
<g id="edge6" class="edge transition">
<title>4&#39;b0100&#45;&gt;4&#39;b0100</title>
<path fill="none" stroke="#000000" d="M80.1538,-132.8643C92.1365,-133.0238 102,-131.4023 102,-128 102,-125.6609 97.3379,-124.1635 90.5304,-123.5079"/>
<polygon fill="#000000" stroke="#000000" points="90.2729,-119.9966 80.1538,-123.1357 90.0219,-126.9921 90.2729,-119.9966"/>
<text text-anchor="start" x="102" y="-131" font-family="Helvetica,sans-Serif" font-size="10.00" fill="#000000">not (((wr_addr2 == IMAGE_W &#45; 1) || (data_half_valid &amp;&amp; (wr_addr2 == IMAGE_W / 2 &#45; 1))) &amp;&amp; &#160;&#160;</text>
<text text-anchor="start" x="102" y="-119" font-family="Helvetica,sans-Serif" font-size="10.00" fill="#000000">(data_in_valid0)) &#160;&#160;</text>
</g>
<!-- 4&#39;b1000 -->
<g id="node5" class="node state regular">
<title>4&#39;b1000</title>
<polygon fill="#ffffff" fill-opacity="0.003922" stroke="transparent" stroke-width="2" points="264,-52 200,-52 200,-16 264,-16 264,-52"/>
<text text-anchor="start" x="210.6622" y="-30.2" font-family="Helvetica,sans-Serif" font-size="12.00" fill="#000000">4&#39;b1000</text>
<path fill="none" stroke="#000000" stroke-width="2" d="M212.3333,-17C212.3333,-17 251.6667,-17 251.6667,-17 257.3333,-17 263,-22.6667 263,-28.3333 263,-28.3333 263,-39.6667 263,-39.6667 263,-45.3333 257.3333,-51 251.6667,-51 251.6667,-51 212.3333,-51 212.3333,-51 206.6667,-51 201,-45.3333 201,-39.6667 201,-39.6667 201,-28.3333 201,-28.3333 201,-22.6667 206.6667,-17 212.3333,-17"/>
</g>
<!-- 4&#39;b0100&#45;&gt;4&#39;b1000 -->
<g id="edge5" class="edge transition">
<title>4&#39;b0100&#45;&gt;4&#39;b1000</title>
<path fill="none" stroke="#000000" d="M71.3667,-109.7777C88.3306,-97.1522 112.2059,-80.5939 134.966,-69 152.3073,-60.1664 172.4113,-52.5255 189.8077,-46.6566"/>
<polygon fill="#000000" stroke="#000000" points="191.2868,-49.8548 199.6962,-43.4101 189.1033,-43.2041 191.2868,-49.8548"/>
<text text-anchor="start" x="134" y="-84" font-family="Helvetica,sans-Serif" font-size="10.00" fill="#000000">((wr_addr2 == IMAGE_W &#45; 1) || (data_half_valid &amp;&amp; (wr_addr2 == IMAGE_W / 2 &#45; 1))) &amp;&amp; &#160;&#160;</text>
<text text-anchor="start" x="134" y="-72" font-family="Helvetica,sans-Serif" font-size="10.00" fill="#000000">(data_in_valid0) &#160;&#160;</text>
</g>
<!-- 4&#39;b1000&#45;&gt;4&#39;b0001 -->
<g id="edge7" class="edge transition">
<title>4&#39;b1000&#45;&gt;4&#39;b0001</title>
<path fill="none" stroke="#000000" d="M264.2508,-35.2922C339.3503,-38.6316 520.9172,-48.7385 539,-69 589.6474,-125.7496 552.2911,-166.6928 532,-240 526.4834,-259.9304 527.2332,-269.5688 510,-281 482.7827,-299.054 269.626,-310.2464 177.3483,-314.2905"/>
<polygon fill="#000000" stroke="#000000" points="177.0755,-310.7989 167.2354,-314.7262 177.3769,-317.7924 177.0755,-310.7989"/>
<text text-anchor="start" x="558" y="-178" font-family="Helvetica,sans-Serif" font-size="10.00" fill="#000000">((wr_addr3 == IMAGE_W &#45; 1) || (data_half_valid &amp;&amp; (wr_addr3 == IMAGE_W / 2 &#45; 1))) &amp;&amp; &#160;&#160;</text>
<text text-anchor="start" x="558" y="-166" font-family="Helvetica,sans-Serif" font-size="10.00" fill="#000000">(data_in_valid0) &#160;&#160;</text>
</g>
<!-- 4&#39;b1000&#45;&gt;4&#39;b1000 -->
<g id="edge8" class="edge transition">
<title>4&#39;b1000&#45;&gt;4&#39;b1000</title>
<path fill="none" stroke="#000000" d="M264.1538,-38.8643C276.1365,-39.0238 286,-37.4023 286,-34 286,-31.6609 281.3379,-30.1635 274.5304,-29.5079"/>
<polygon fill="#000000" stroke="#000000" points="274.2729,-25.9966 264.1538,-29.1357 274.0219,-32.9921 274.2729,-25.9966"/>
<text text-anchor="start" x="286" y="-37" font-family="Helvetica,sans-Serif" font-size="10.00" fill="#000000">not (((wr_addr3 == IMAGE_W &#45; 1) || (data_half_valid &amp;&amp; (wr_addr3 == IMAGE_W / 2 &#45; 1))) &amp;&amp; &#160;&#160;</text>
<text text-anchor="start" x="286" y="-25" font-family="Helvetica,sans-Serif" font-size="10.00" fill="#000000">(data_in_valid0)) &#160;&#160;</text>
</g>
</g>
</svg>
