<?xml version="1.0" encoding="UTF-8" standalone="no"?>
<!DOCTYPE svg PUBLIC "-//W3C//DTD SVG 1.1//EN"
 "http://www.w3.org/Graphics/SVG/1.1/DTD/svg11.dtd">
<!-- Generated by graphviz version 2.40.1 (20161225.0304)
 -->
<!-- Title: state transitions Pages: 1 -->
<svg width="585pt" height="352pt"
 viewBox="0.00 0.00 585.00 352.00" xmlns="http://www.w3.org/2000/svg" xmlns:xlink="http://www.w3.org/1999/xlink">
<g id="graph0" class="graph" transform="scale(1 1) rotate(0) translate(4 348)">
<title>state transitions</title>
<polygon fill="#ffffff" stroke="transparent" points="-4,4 -4,-348 581,-348 581,4 -4,4"/>
<g id="clust1" class="cluster state regular">
<title>cluster_addr_sta</title>
<path fill="none" stroke="#000000" stroke-width="2" d="M20,-8C20,-8 557,-8 557,-8 563,-8 569,-14 569,-20 569,-20 569,-324 569,-324 569,-330 563,-336 557,-336 557,-336 20,-336 20,-336 14,-336 8,-330 8,-324 8,-324 8,-20 8,-20 8,-14 14,-8 20,-8"/>
<text text-anchor="start" x="265.1582" y="-317.2" font-family="Helvetica,sans-Serif" font-size="12.00" fill="#000000">addr_sta</text>
</g>
<!-- addr_sta -->
<!-- &#39;d1 -->
<g id="node2" class="node state regular">
<title>&#39;d1</title>
<polygon fill="#ffffff" fill-opacity="0.003922" stroke="transparent" stroke-width="2" points="133,-298 77,-298 77,-262 133,-262 133,-298"/>
<text text-anchor="start" x="97.0038" y="-276.2" font-family="Helvetica,sans-Serif" font-size="12.00" fill="#000000">&#39;d1</text>
<path fill="none" stroke="#000000" stroke-width="2" d="M89.3333,-263C89.3333,-263 120.6667,-263 120.6667,-263 126.3333,-263 132,-268.6667 132,-274.3333 132,-274.3333 132,-285.6667 132,-285.6667 132,-291.3333 126.3333,-297 120.6667,-297 120.6667,-297 89.3333,-297 89.3333,-297 83.6667,-297 78,-291.3333 78,-285.6667 78,-285.6667 78,-274.3333 78,-274.3333 78,-268.6667 83.6667,-263 89.3333,-263"/>
</g>
<!-- &#39;d1&#45;&gt;&#39;d1 -->
<g id="edge2" class="edge transition">
<title>&#39;d1&#45;&gt;&#39;d1</title>
<path fill="none" stroke="#000000" d="M133.0183,-284.8247C144.888,-285.1883 155,-283.5801 155,-280 155,-277.5387 150.2205,-276.0094 143.3762,-275.4121"/>
<polygon fill="#000000" stroke="#000000" points="143.0957,-271.9049 133.0183,-275.1753 142.9356,-278.903 143.0957,-271.9049"/>
<text text-anchor="start" x="155" y="-277" font-family="Helvetica,sans-Serif" font-size="10.00" fill="#000000">not ((mult_h2 &lt; (IMAGE_H / 2) &amp;&amp; (zoom_sta_param1))) &#160;&#160;</text>
</g>
<!-- &#39;d2 -->
<g id="node3" class="node state regular">
<title>&#39;d2</title>
<polygon fill="#ffffff" fill-opacity="0.003922" stroke="transparent" stroke-width="2" points="210,-216 154,-216 154,-180 210,-180 210,-216"/>
<text text-anchor="start" x="174.0038" y="-194.2" font-family="Helvetica,sans-Serif" font-size="12.00" fill="#000000">&#39;d2</text>
<path fill="none" stroke="#000000" stroke-width="2" d="M166.3333,-181C166.3333,-181 197.6667,-181 197.6667,-181 203.3333,-181 209,-186.6667 209,-192.3333 209,-192.3333 209,-203.6667 209,-203.6667 209,-209.3333 203.3333,-215 197.6667,-215 197.6667,-215 166.3333,-215 166.3333,-215 160.6667,-215 155,-209.3333 155,-203.6667 155,-203.6667 155,-192.3333 155,-192.3333 155,-186.6667 160.6667,-181 166.3333,-181"/>
</g>
<!-- &#39;d1&#45;&gt;&#39;d2 -->
<g id="edge1" class="edge transition">
<title>&#39;d1&#45;&gt;&#39;d2</title>
<path fill="none" stroke="#000000" d="M85.3487,-261.9935C77.9065,-252.982 72.6304,-242.0869 79.137,-233 86.9658,-222.0666 117.9796,-212.4554 143.9253,-206.085"/>
<polygon fill="#000000" stroke="#000000" points="144.9957,-209.4286 153.9236,-203.7239 143.3869,-202.616 144.9957,-209.4286"/>
<text text-anchor="start" x="79" y="-236" font-family="Helvetica,sans-Serif" font-size="10.00" fill="#000000">(mult_h2 &lt; (IMAGE_H / 2) &amp;&amp; (zoom_sta_param1)) &#160;&#160;</text>
</g>
<!-- &#39;d2&#45;&gt;&#39;d1 -->
<g id="edge4" class="edge transition">
<title>&#39;d2&#45;&gt;&#39;d1</title>
<path fill="none" stroke="#000000" d="M210.1973,-201.3351C245.5741,-206.1663 303.1765,-216.3969 316,-233 319.2601,-237.2209 319.4489,-240.9319 316,-245 304.9799,-257.9987 201.2655,-270.3525 143.4632,-276.3022"/>
<polygon fill="#000000" stroke="#000000" points="142.8339,-272.8479 133.2372,-277.3373 143.5389,-279.8123 142.8339,-272.8479"/>
<text text-anchor="start" x="318" y="-236" font-family="Helvetica,sans-Serif" font-size="10.00" fill="#000000">not ((mult_h2 != store_addr) | (~ram_idle)) &#160;&#160;</text>
</g>
<!-- &#39;d4 -->
<g id="node4" class="node state regular">
<title>&#39;d4</title>
<polygon fill="#ffffff" fill-opacity="0.003922" stroke="transparent" stroke-width="2" points="210,-134 154,-134 154,-98 210,-98 210,-134"/>
<text text-anchor="start" x="174.0038" y="-112.2" font-family="Helvetica,sans-Serif" font-size="12.00" fill="#000000">&#39;d4</text>
<path fill="none" stroke="#000000" stroke-width="2" d="M166.3333,-99C166.3333,-99 197.6667,-99 197.6667,-99 203.3333,-99 209,-104.6667 209,-110.3333 209,-110.3333 209,-121.6667 209,-121.6667 209,-127.3333 203.3333,-133 197.6667,-133 197.6667,-133 166.3333,-133 166.3333,-133 160.6667,-133 155,-127.3333 155,-121.6667 155,-121.6667 155,-110.3333 155,-110.3333 155,-104.6667 160.6667,-99 166.3333,-99"/>
</g>
<!-- &#39;d2&#45;&gt;&#39;d4 -->
<g id="edge3" class="edge transition">
<title>&#39;d2&#45;&gt;&#39;d4</title>
<path fill="none" stroke="#000000" d="M182,-179.8015C182,-169.3976 182,-156.1215 182,-144.3768"/>
<polygon fill="#000000" stroke="#000000" points="185.5001,-144.1476 182,-134.1476 178.5001,-144.1476 185.5001,-144.1476"/>
<text text-anchor="start" x="182" y="-154" font-family="Helvetica,sans-Serif" font-size="10.00" fill="#000000">(mult_h2 != store_addr) | (~ram_idle) &#160;&#160;</text>
</g>
<!-- &#39;d8 -->
<g id="node5" class="node state regular">
<title>&#39;d8</title>
<polygon fill="#ffffff" fill-opacity="0.003922" stroke="transparent" stroke-width="2" points="91,-52 35,-52 35,-16 91,-16 91,-52"/>
<text text-anchor="start" x="55.0038" y="-30.2" font-family="Helvetica,sans-Serif" font-size="12.00" fill="#000000">&#39;d8</text>
<path fill="none" stroke="#000000" stroke-width="2" d="M47.3333,-17C47.3333,-17 78.6667,-17 78.6667,-17 84.3333,-17 90,-22.6667 90,-28.3333 90,-28.3333 90,-39.6667 90,-39.6667 90,-45.3333 84.3333,-51 78.6667,-51 78.6667,-51 47.3333,-51 47.3333,-51 41.6667,-51 36,-45.3333 36,-39.6667 36,-39.6667 36,-28.3333 36,-28.3333 36,-22.6667 41.6667,-17 47.3333,-17"/>
</g>
<!-- &#39;d4&#45;&gt;&#39;d8 -->
<g id="edge6" class="edge transition">
<title>&#39;d4&#45;&gt;&#39;d8</title>
<path fill="none" stroke="#000000" d="M153.7834,-108.2629C136.6425,-102.6139 114.9831,-93.7055 98.609,-81 91.4007,-75.4067 84.8954,-68.0113 79.4774,-60.7466"/>
<polygon fill="#000000" stroke="#000000" points="82.2372,-58.5855 73.6396,-52.3942 76.4997,-62.5957 82.2372,-58.5855"/>
<text text-anchor="start" x="98" y="-72" font-family="Helvetica,sans-Serif" font-size="10.00" fill="#000000">not (mult_h2 == (store_addr_add_one)) &#160;&#160;</text>
</g>
<!-- &#39;d16 -->
<g id="node6" class="node state regular">
<title>&#39;d16</title>
<polygon fill="#ffffff" fill-opacity="0.003922" stroke="transparent" stroke-width="2" points="394,-52 338,-52 338,-16 394,-16 394,-52"/>
<text text-anchor="start" x="354.6684" y="-30.2" font-family="Helvetica,sans-Serif" font-size="12.00" fill="#000000">&#39;d16</text>
<path fill="none" stroke="#000000" stroke-width="2" d="M350.3333,-17C350.3333,-17 381.6667,-17 381.6667,-17 387.3333,-17 393,-22.6667 393,-28.3333 393,-28.3333 393,-39.6667 393,-39.6667 393,-45.3333 387.3333,-51 381.6667,-51 381.6667,-51 350.3333,-51 350.3333,-51 344.6667,-51 339,-45.3333 339,-39.6667 339,-39.6667 339,-28.3333 339,-28.3333 339,-22.6667 344.6667,-17 350.3333,-17"/>
</g>
<!-- &#39;d4&#45;&gt;&#39;d16 -->
<g id="edge5" class="edge transition">
<title>&#39;d4&#45;&gt;&#39;d16</title>
<path fill="none" stroke="#000000" d="M210.3976,-107.6799C230.9375,-101.2983 259.1551,-91.775 283,-81 298.4736,-74.0078 314.8676,-65.0765 328.9622,-56.8813"/>
<polygon fill="#000000" stroke="#000000" points="331.0266,-59.7271 337.8595,-51.63 327.4686,-53.6987 331.0266,-59.7271"/>
<text text-anchor="start" x="306" y="-72" font-family="Helvetica,sans-Serif" font-size="10.00" fill="#000000">mult_h2 == (store_addr_add_one) &#160;&#160;</text>
</g>
<!-- &#39;d8&#45;&gt;&#39;d1 -->
<g id="edge7" class="edge transition">
<title>&#39;d8&#45;&gt;&#39;d1</title>
<path fill="none" stroke="#000000" d="M61.9684,-52.2514C60.2653,-89.0574 58.2147,-174.669 71,-245 71.7541,-249.1484 71.6286,-250.5137 74,-254 74.0593,-254.0871 74.1189,-254.1741 74.1789,-254.261"/>
<polygon fill="#000000" stroke="#000000" points="71.5031,-256.5171 80.6164,-261.9206 76.8619,-252.0134 71.5031,-256.5171"/>
<text text-anchor="middle" x="63.3895" y="-154" font-family="Helvetica,sans-Serif" font-size="10.00" fill="#000000"> </text>
</g>
<!-- &#39;d16&#45;&gt;&#39;d1 -->
<g id="edge8" class="edge transition">
<title>&#39;d16&#45;&gt;&#39;d1</title>
<path fill="none" stroke="#000000" d="M394.2769,-37.4421C431.4258,-42.7686 492,-54.584 492,-75 492,-142.5 492,-142.5 492,-142.5 492,-184.3492 512.1652,-191.5595 518,-233 518.7436,-238.2812 521.6085,-241.0728 518,-245 492.9271,-272.2876 240.7934,-278.3224 143.2488,-279.6389"/>
<polygon fill="#000000" stroke="#000000" points="143.1755,-276.1394 133.2202,-279.7648 143.2634,-283.1389 143.1755,-276.1394"/>
<text text-anchor="start" x="493" y="-154" font-family="Helvetica,sans-Serif" font-size="10.00" fill="#000000">wr_ram_done &#160;&#160;</text>
</g>
<!-- &#39;d16&#45;&gt;&#39;d16 -->
<g id="edge9" class="edge transition">
<title>&#39;d16&#45;&gt;&#39;d16</title>
<path fill="none" stroke="#000000" d="M394.0183,-38.8247C405.888,-39.1883 416,-37.5801 416,-34 416,-31.5387 411.2205,-30.0094 404.3762,-29.4121"/>
<polygon fill="#000000" stroke="#000000" points="404.0957,-25.9049 394.0183,-29.1753 403.9356,-32.903 404.0957,-25.9049"/>
<text text-anchor="start" x="416" y="-31" font-family="Helvetica,sans-Serif" font-size="10.00" fill="#000000">not (wr_ram_done) &#160;&#160;</text>
</g>
</g>
</svg>
