<?xml version="1.0" encoding="UTF-8" standalone="no"?>
<!DOCTYPE svg PUBLIC "-//W3C//DTD SVG 1.1//EN"
 "http://www.w3.org/Graphics/SVG/1.1/DTD/svg11.dtd">
<!-- Generated by graphviz version 2.40.1 (20161225.0304)
 -->
<!-- Title: state transitions Pages: 1 -->
<svg width="742pt" height="458pt"
 viewBox="0.00 0.00 741.57 458.00" xmlns="http://www.w3.org/2000/svg" xmlns:xlink="http://www.w3.org/1999/xlink">
<g id="graph0" class="graph" transform="scale(1 1) rotate(0) translate(4 454)">
<title>state transitions</title>
<polygon fill="#ffffff" stroke="transparent" points="-4,4 -4,-454 737.57,-454 737.57,4 -4,4"/>
<g id="clust1" class="cluster state regular">
<title>cluster_zoom_sta</title>
<path fill="none" stroke="#000000" stroke-width="2" d="M20,-8C20,-8 607,-8 607,-8 613,-8 619,-14 619,-20 619,-20 619,-430 619,-430 619,-436 613,-442 607,-442 607,-442 20,-442 20,-442 14,-442 8,-436 8,-430 8,-430 8,-20 8,-20 8,-14 14,-8 20,-8"/>
<text text-anchor="start" x="287.4936" y="-423.2" font-family="Helvetica,sans-Serif" font-size="12.00" fill="#000000">zoom_sta</text>
</g>
<!-- zoom_sta -->
<!-- IDLE -->
<g id="node2" class="node state regular">
<title>IDLE</title>
<polygon fill="#ffffff" fill-opacity="0.003922" stroke="transparent" stroke-width="2" points="474,-404 418,-404 418,-368 474,-368 474,-404"/>
<text text-anchor="start" x="432.6644" y="-382.2" font-family="Helvetica,sans-Serif" font-size="12.00" fill="#000000">IDLE</text>
<path fill="none" stroke="#000000" stroke-width="2" d="M430.3333,-369C430.3333,-369 461.6667,-369 461.6667,-369 467.3333,-369 473,-374.6667 473,-380.3333 473,-380.3333 473,-391.6667 473,-391.6667 473,-397.3333 467.3333,-403 461.6667,-403 461.6667,-403 430.3333,-403 430.3333,-403 424.6667,-403 419,-397.3333 419,-391.6667 419,-391.6667 419,-380.3333 419,-380.3333 419,-374.6667 424.6667,-369 430.3333,-369"/>
</g>
<!-- IDLE&#45;&gt;IDLE -->
<g id="edge2" class="edge transition">
<title>IDLE&#45;&gt;IDLE</title>
<path fill="none" stroke="#000000" d="M474.0183,-390.8247C485.888,-391.1883 496,-389.5801 496,-386 496,-383.5387 491.2205,-382.0094 484.3762,-381.4121"/>
<polygon fill="#000000" stroke="#000000" points="484.0957,-377.9049 474.0183,-381.1753 483.9356,-384.903 484.0957,-377.9049"/>
<text text-anchor="start" x="496" y="-383" font-family="Helvetica,sans-Serif" font-size="10.00" fill="#000000">not (zoom_en) &#160;&#160;</text>
</g>
<!-- JUDGE -->
<g id="node3" class="node state regular">
<title>JUDGE</title>
<polygon fill="#ffffff" fill-opacity="0.003922" stroke="transparent" stroke-width="2" points="84,-322 22,-322 22,-286 84,-286 84,-322"/>
<text text-anchor="start" x="32.6684" y="-300.2" font-family="Helvetica,sans-Serif" font-size="12.00" fill="#000000">JUDGE</text>
<path fill="none" stroke="#000000" stroke-width="2" d="M34.3333,-287C34.3333,-287 71.6667,-287 71.6667,-287 77.3333,-287 83,-292.6667 83,-298.3333 83,-298.3333 83,-309.6667 83,-309.6667 83,-315.3333 77.3333,-321 71.6667,-321 71.6667,-321 34.3333,-321 34.3333,-321 28.6667,-321 23,-315.3333 23,-309.6667 23,-309.6667 23,-298.3333 23,-298.3333 23,-292.6667 28.6667,-287 34.3333,-287"/>
</g>
<!-- IDLE&#45;&gt;JUDGE -->
<g id="edge1" class="edge transition">
<title>IDLE&#45;&gt;JUDGE</title>
<path fill="none" stroke="#000000" d="M417.7364,-380.1028C349.3513,-365.8341 174.7005,-329.393 94.4577,-312.6502"/>
<polygon fill="#000000" stroke="#000000" points="94.7427,-309.1344 84.2386,-310.518 93.3129,-315.9868 94.7427,-309.1344"/>
<text text-anchor="start" x="275" y="-342" font-family="Helvetica,sans-Serif" font-size="10.00" fill="#000000">zoom_en &#160;&#160;</text>
</g>
<!-- JUDGE&#45;&gt;JUDGE -->
<g id="edge5" class="edge transition">
<title>JUDGE&#45;&gt;JUDGE</title>
<path fill="none" stroke="#000000" d="M84.0304,-306.428C96.028,-306.5359 106,-305.7266 106,-304 106,-302.813 101.2867,-302.0595 94.4422,-301.7396"/>
<polygon fill="#000000" stroke="#000000" points="94.0855,-298.2335 84.0304,-301.572 93.9728,-305.2326 94.0855,-298.2335"/>
<text text-anchor="start" x="106" y="-313" font-family="Helvetica,sans-Serif" font-size="10.00" fill="#000000">not (judge_cnt_h_valid) &#160;&#160;</text>
<text text-anchor="start" x="106" y="-301" font-family="Helvetica,sans-Serif" font-size="10.00" fill="#000000">not (fifo_full0) &#160;&#160;</text>
<text text-anchor="start" x="106" y="-289" font-family="Helvetica,sans-Serif" font-size="10.00" fill="#000000">delay_cnt == MultDelay + 3 &#160;&#160;</text>
</g>
<!-- JUDGE&#45;&gt;JUDGE -->
<g id="edge6" class="edge transition">
<title>JUDGE&#45;&gt;JUDGE</title>
<path fill="none" stroke="#000000" d="M84.2151,-307.2676C138.0227,-310.2054 235.764,-309.1162 235.764,-304 235.764,-299.1936 149.5003,-297.9413 94.4405,-300.2431"/>
<polygon fill="#000000" stroke="#000000" points="94.0364,-296.7583 84.2151,-300.7324 94.371,-303.7503 94.0364,-296.7583"/>
<text text-anchor="start" x="235.764" y="-301" font-family="Helvetica,sans-Serif" font-size="10.00" fill="#000000">not (delay_cnt == MultDelay + 3) &#160;&#160;</text>
</g>
<!-- PARAM -->
<g id="node4" class="node state regular">
<title>PARAM</title>
<polygon fill="#ffffff" fill-opacity="0.003922" stroke="transparent" stroke-width="2" points="161,-228 97,-228 97,-192 161,-192 161,-228"/>
<text text-anchor="start" x="107.667" y="-206.2" font-family="Helvetica,sans-Serif" font-size="12.00" fill="#000000">PARAM</text>
<path fill="none" stroke="#000000" stroke-width="2" d="M109.3333,-193C109.3333,-193 148.6667,-193 148.6667,-193 154.3333,-193 160,-198.6667 160,-204.3333 160,-204.3333 160,-215.6667 160,-215.6667 160,-221.3333 154.3333,-227 148.6667,-227 148.6667,-227 109.3333,-227 109.3333,-227 103.6667,-227 98,-221.3333 98,-215.6667 98,-215.6667 98,-204.3333 98,-204.3333 98,-198.6667 103.6667,-193 109.3333,-193"/>
</g>
<!-- JUDGE&#45;&gt;PARAM -->
<g id="edge3" class="edge transition">
<title>JUDGE&#45;&gt;PARAM</title>
<path fill="none" stroke="#000000" d="M58.2299,-285.8356C62.4556,-273.3959 69.3399,-257.0361 79.236,-245 82.3427,-241.2215 85.954,-237.6646 89.7857,-234.3729"/>
<polygon fill="#000000" stroke="#000000" points="92.1814,-236.9411 97.8691,-228.0024 87.8486,-231.4432 92.1814,-236.9411"/>
<text text-anchor="start" x="79" y="-260" font-family="Helvetica,sans-Serif" font-size="10.00" fill="#000000">judge_cnt_h_valid &#160;&#160;</text>
<text text-anchor="start" x="79" y="-248" font-family="Helvetica,sans-Serif" font-size="10.00" fill="#000000">delay_cnt == MultDelay + 3 &#160;&#160;</text>
</g>
<!-- BLANK -->
<g id="node8" class="node state regular">
<title>BLANK</title>
<polygon fill="#ffffff" fill-opacity="0.003922" stroke="transparent" stroke-width="2" points="244.5,-228 183.5,-228 183.5,-192 244.5,-192 244.5,-228"/>
<text text-anchor="start" x="194.829" y="-206.2" font-family="Helvetica,sans-Serif" font-size="12.00" fill="#000000">BLANK</text>
<path fill="none" stroke="#000000" stroke-width="2" d="M195.8333,-193C195.8333,-193 232.1667,-193 232.1667,-193 237.8333,-193 243.5,-198.6667 243.5,-204.3333 243.5,-204.3333 243.5,-215.6667 243.5,-215.6667 243.5,-221.3333 237.8333,-227 232.1667,-227 232.1667,-227 195.8333,-227 195.8333,-227 190.1667,-227 184.5,-221.3333 184.5,-215.6667 184.5,-215.6667 184.5,-204.3333 184.5,-204.3333 184.5,-198.6667 190.1667,-193 195.8333,-193"/>
</g>
<!-- JUDGE&#45;&gt;BLANK -->
<g id="edge4" class="edge transition">
<title>JUDGE&#45;&gt;BLANK</title>
<path fill="none" stroke="#000000" d="M84.0256,-301.4145C125.0095,-297.3034 193.8982,-287.7494 210,-269 217.1235,-260.7051 219.0124,-249.1008 218.789,-238.3761"/>
<polygon fill="#000000" stroke="#000000" points="222.254,-237.7932 217.9773,-228.0998 215.2757,-238.3444 222.254,-237.7932"/>
<text text-anchor="start" x="218" y="-260" font-family="Helvetica,sans-Serif" font-size="10.00" fill="#000000">fifo_full0 &#160;&#160;</text>
<text text-anchor="start" x="218" y="-248" font-family="Helvetica,sans-Serif" font-size="10.00" fill="#000000">delay_cnt == MultDelay + 3 &#160;&#160;</text>
</g>
<!-- WAIT0 -->
<g id="node5" class="node state regular">
<title>WAIT0</title>
<polygon fill="#ffffff" fill-opacity="0.003922" stroke="transparent" stroke-width="2" points="137,-134 79,-134 79,-98 137,-98 137,-134"/>
<text text-anchor="start" x="89.667" y="-112.2" font-family="Helvetica,sans-Serif" font-size="12.00" fill="#000000">WAIT0</text>
<path fill="none" stroke="#000000" stroke-width="2" d="M91.3333,-99C91.3333,-99 124.6667,-99 124.6667,-99 130.3333,-99 136,-104.6667 136,-110.3333 136,-110.3333 136,-121.6667 136,-121.6667 136,-127.3333 130.3333,-133 124.6667,-133 124.6667,-133 91.3333,-133 91.3333,-133 85.6667,-133 80,-127.3333 80,-121.6667 80,-121.6667 80,-110.3333 80,-110.3333 80,-104.6667 85.6667,-99 91.3333,-99"/>
</g>
<!-- PARAM&#45;&gt;WAIT0 -->
<g id="edge8" class="edge transition">
<title>PARAM&#45;&gt;WAIT0</title>
<path fill="none" stroke="#000000" d="M161.3365,-195.5983C165.2148,-194.2223 169.161,-192.9782 173,-192 241.2196,-174.6179 371.6641,-204.5802 326,-151 314.5655,-137.5832 206.9999,-125.3761 147.3621,-119.568"/>
<polygon fill="#000000" stroke="#000000" points="147.4575,-116.0612 137.1695,-118.5921 146.7903,-123.0293 147.4575,-116.0612"/>
<text text-anchor="start" x="335" y="-160" font-family="Helvetica,sans-Serif" font-size="10.00" fill="#000000">not (ram_idle) &#160;&#160;</text>
</g>
<!-- WAIT1 -->
<g id="node6" class="node state regular">
<title>WAIT1</title>
<polygon fill="#ffffff" fill-opacity="0.003922" stroke="transparent" stroke-width="2" points="343,-134 285,-134 285,-98 343,-98 343,-134"/>
<text text-anchor="start" x="295.667" y="-112.2" font-family="Helvetica,sans-Serif" font-size="12.00" fill="#000000">WAIT1</text>
<path fill="none" stroke="#000000" stroke-width="2" d="M297.3333,-99C297.3333,-99 330.6667,-99 330.6667,-99 336.3333,-99 342,-104.6667 342,-110.3333 342,-110.3333 342,-121.6667 342,-121.6667 342,-127.3333 336.3333,-133 330.6667,-133 330.6667,-133 297.3333,-133 297.3333,-133 291.6667,-133 286,-127.3333 286,-121.6667 286,-121.6667 286,-110.3333 286,-110.3333 286,-104.6667 291.6667,-99 297.3333,-99"/>
</g>
<!-- PARAM&#45;&gt;WAIT1 -->
<g id="edge7" class="edge transition">
<title>PARAM&#45;&gt;WAIT1</title>
<path fill="none" stroke="#000000" d="M161.2856,-195.3865C165.1731,-194.0485 169.1354,-192.8712 173,-192 198.7547,-186.1943 392.2637,-194.556 410,-175 431.0523,-151.7878 388.1704,-134.5239 353.1229,-124.8528"/>
<polygon fill="#000000" stroke="#000000" points="353.6026,-121.3604 343.0421,-122.2123 351.8289,-128.132 353.6026,-121.3604"/>
<text text-anchor="start" x="415" y="-160" font-family="Helvetica,sans-Serif" font-size="10.00" fill="#000000">ram_idle &#160;&#160;</text>
</g>
<!-- WAIT0&#45;&gt;PARAM -->
<g id="edge9" class="edge transition">
<title>WAIT0&#45;&gt;PARAM</title>
<path fill="none" stroke="#000000" d="M137.0119,-119.1465C157.2499,-123.0241 182.8918,-131.6797 196,-151 201.9887,-159.8269 201.5271,-165.877 196,-175 192.6674,-180.5008 182.0651,-186.9201 170.2483,-192.7482"/>
<polygon fill="#000000" stroke="#000000" points="168.6335,-189.6398 161.0755,-197.0647 171.6141,-195.9736 168.6335,-189.6398"/>
<text text-anchor="start" x="200" y="-160" font-family="Helvetica,sans-Serif" font-size="10.00" fill="#000000">record_ram_valid &#160;&#160;</text>
</g>
<!-- WAIT0&#45;&gt;WAIT0 -->
<g id="edge10" class="edge transition">
<title>WAIT0&#45;&gt;WAIT0</title>
<path fill="none" stroke="#000000" d="M137.0927,-120.839C148.9763,-121.1423 159,-119.5293 159,-116 159,-113.5736 154.2622,-112.053 147.4395,-111.4381"/>
<polygon fill="#000000" stroke="#000000" points="147.1828,-107.93 137.0927,-111.161 146.9954,-114.9275 147.1828,-107.93"/>
<text text-anchor="start" x="159" y="-113" font-family="Helvetica,sans-Serif" font-size="10.00" fill="#000000">not (record_ram_valid) &#160;&#160;</text>
</g>
<!-- WAIT1&#45;&gt;WAIT1 -->
<g id="edge12" class="edge transition">
<title>WAIT1&#45;&gt;WAIT1</title>
<path fill="none" stroke="#000000" d="M343.0927,-120.839C354.9763,-121.1423 365,-119.5293 365,-116 365,-113.5736 360.2622,-112.053 353.4395,-111.4381"/>
<polygon fill="#000000" stroke="#000000" points="353.1828,-107.93 343.0927,-111.161 352.9954,-114.9275 353.1828,-107.93"/>
<text text-anchor="start" x="365" y="-113" font-family="Helvetica,sans-Serif" font-size="10.00" fill="#000000">not (record_ram_valid &amp;&amp; fifo_full0) &#160;&#160;</text>
</g>
<!-- ZOOM -->
<g id="node7" class="node state regular">
<title>ZOOM</title>
<polygon fill="#ffffff" fill-opacity="0.003922" stroke="transparent" stroke-width="2" points="342.5,-52 285.5,-52 285.5,-16 342.5,-16 342.5,-52"/>
<text text-anchor="start" x="296.5024" y="-30.2" font-family="Helvetica,sans-Serif" font-size="12.00" fill="#000000">ZOOM</text>
<path fill="none" stroke="#000000" stroke-width="2" d="M297.8333,-17C297.8333,-17 330.1667,-17 330.1667,-17 335.8333,-17 341.5,-22.6667 341.5,-28.3333 341.5,-28.3333 341.5,-39.6667 341.5,-39.6667 341.5,-45.3333 335.8333,-51 330.1667,-51 330.1667,-51 297.8333,-51 297.8333,-51 292.1667,-51 286.5,-45.3333 286.5,-39.6667 286.5,-39.6667 286.5,-28.3333 286.5,-28.3333 286.5,-22.6667 292.1667,-17 297.8333,-17"/>
</g>
<!-- WAIT1&#45;&gt;ZOOM -->
<g id="edge11" class="edge transition">
<title>WAIT1&#45;&gt;ZOOM</title>
<path fill="none" stroke="#000000" d="M314,-97.8015C314,-87.3976 314,-74.1215 314,-62.3768"/>
<polygon fill="#000000" stroke="#000000" points="317.5001,-62.1476 314,-52.1476 310.5001,-62.1476 317.5001,-62.1476"/>
<text text-anchor="start" x="314" y="-72" font-family="Helvetica,sans-Serif" font-size="10.00" fill="#000000">record_ram_valid &amp;&amp; fifo_full0 &#160;&#160;</text>
</g>
<!-- ZOOM&#45;&gt;IDLE -->
<g id="edge13" class="edge transition">
<title>ZOOM&#45;&gt;IDLE</title>
<path fill="none" stroke="#000000" d="M342.8156,-36.0548C405.5674,-40.9161 549,-54.2926 549,-75 549,-142.5 549,-142.5 549,-142.5 549,-208.3408 610,-211.6592 610,-277.5 610,-345 610,-345 610,-345 610,-370.7701 532.8238,-380.478 484.3561,-384.0338"/>
<polygon fill="#000000" stroke="#000000" points="483.9337,-380.5543 474.1926,-384.7211 484.406,-387.5383 483.9337,-380.5543"/>
<text text-anchor="start" x="593" y="-213" font-family="Helvetica,sans-Serif" font-size="10.00" fill="#000000">cnt_h == (IMAGE_H / 2 &#45; 1) &#160;&#160;</text>
<text text-anchor="start" x="593" y="-201" font-family="Helvetica,sans-Serif" font-size="10.00" fill="#000000">(cnt_w == (IMAGE_W / 2 &#45; 1)) &#160;&#160;</text>
</g>
<!-- ZOOM&#45;&gt;JUDGE -->
<g id="edge14" class="edge transition">
<title>ZOOM&#45;&gt;JUDGE</title>
<path fill="none" stroke="#000000" d="M285.2442,-35.2903C214.5538,-38.8445 38,-50.2035 38,-75 38,-142.5 38,-142.5 38,-142.5 38,-146.2813 37.7154,-147.2196 37.634,-151 37.4045,-161.6642 37.0021,-164.3521 37.634,-175 39.7009,-209.8272 44.8804,-249.6658 48.6562,-275.7436"/>
<polygon fill="#000000" stroke="#000000" points="45.2015,-276.3083 50.1251,-285.6896 52.1264,-275.2855 45.2015,-276.3083"/>
<text text-anchor="start" x="37" y="-166" font-family="Helvetica,sans-Serif" font-size="10.00" fill="#000000">not (cnt_h == (IMAGE_H / 2 &#45; 1)) &#160;&#160;</text>
<text text-anchor="start" x="37" y="-154" font-family="Helvetica,sans-Serif" font-size="10.00" fill="#000000">(cnt_w == (IMAGE_W / 2 &#45; 1)) &#160;&#160;</text>
</g>
<!-- ZOOM&#45;&gt;ZOOM -->
<g id="edge15" class="edge transition">
<title>ZOOM&#45;&gt;ZOOM</title>
<path fill="none" stroke="#000000" d="M342.5532,-38.8322C354.4312,-39.1654 364.5,-37.5547 364.5,-34 364.5,-31.5562 359.7409,-30.0311 352.9067,-29.4249"/>
<polygon fill="#000000" stroke="#000000" points="352.6371,-25.9173 342.5532,-29.1678 352.4632,-32.9151 352.6371,-25.9173"/>
<text text-anchor="start" x="364.5" y="-31" font-family="Helvetica,sans-Serif" font-size="10.00" fill="#000000">not ((cnt_w == (IMAGE_W / 2 &#45; 1))) &#160;&#160;</text>
</g>
<!-- BLANK&#45;&gt;IDLE -->
<g id="edge16" class="edge transition">
<title>BLANK&#45;&gt;IDLE</title>
<path fill="none" stroke="#000000" d="M244.7602,-212.4525C320.0243,-218.5995 507.9942,-234.8941 517,-245 524.0965,-252.9635 523.2993,-260.3921 517,-269 502.2484,-289.1579 479.8639,-267.1884 463.43,-286 446.392,-305.5033 443.1713,-335.5671 443.519,-357.6405"/>
<polygon fill="#000000" stroke="#000000" points="440.0268,-357.9044 443.9315,-367.7534 447.021,-357.6191 440.0268,-357.9044"/>
<text text-anchor="start" x="463" y="-307" font-family="Helvetica,sans-Serif" font-size="10.00" fill="#000000">cnt_h == (IMAGE_H / 2 &#45; 1) &#160;&#160;</text>
<text text-anchor="start" x="463" y="-295" font-family="Helvetica,sans-Serif" font-size="10.00" fill="#000000">(cnt_w == (IMAGE_W / 2) &#45; 1) &#160;&#160;</text>
</g>
<!-- BLANK&#45;&gt;JUDGE -->
<g id="edge17" class="edge transition">
<title>BLANK&#45;&gt;JUDGE</title>
<path fill="none" stroke="#000000" d="M244.7477,-212.4437C294.9636,-217.546 385.8561,-232.0879 353,-269 336.0877,-288.0001 172.4616,-298.3052 94.2446,-302.1806"/>
<polygon fill="#000000" stroke="#000000" points="94.0661,-298.685 84.2468,-302.6639 94.4041,-305.6769 94.0661,-298.685"/>
<text text-anchor="start" x="359" y="-260" font-family="Helvetica,sans-Serif" font-size="10.00" fill="#000000">not (cnt_h == (IMAGE_H / 2 &#45; 1)) &#160;&#160;</text>
<text text-anchor="start" x="359" y="-248" font-family="Helvetica,sans-Serif" font-size="10.00" fill="#000000">(cnt_w == (IMAGE_W / 2) &#45; 1) &#160;&#160;</text>
</g>
<!-- BLANK&#45;&gt;BLANK -->
<g id="edge18" class="edge transition">
<title>BLANK&#45;&gt;BLANK</title>
<path fill="none" stroke="#000000" d="M244.7377,-214.856C256.6221,-215.0718 266.5,-213.4531 266.5,-210 266.5,-207.626 261.8311,-206.119 255.0512,-205.4792"/>
<polygon fill="#000000" stroke="#000000" points="254.8461,-201.9707 244.7377,-205.144 254.6187,-208.967 254.8461,-201.9707"/>
<text text-anchor="start" x="266.5" y="-207" font-family="Helvetica,sans-Serif" font-size="10.00" fill="#000000">not ((cnt_w == (IMAGE_W / 2) &#45; 1)) &#160;&#160;</text>
</g>
</g>
</svg>
