<?xml version="1.0" encoding="UTF-8" standalone="no"?>
<!DOCTYPE svg PUBLIC "-//W3C//DTD SVG 1.1//EN"
 "http://www.w3.org/Graphics/SVG/1.1/DTD/svg11.dtd">
<!-- Generated by graphviz version 2.40.1 (20161225.0304)
 -->
<!-- Title: state transitions Pages: 1 -->
<svg width="822pt" height="412pt"
 viewBox="0.00 0.00 822.00 412.00" xmlns="http://www.w3.org/2000/svg" xmlns:xlink="http://www.w3.org/1999/xlink">
<g id="graph0" class="graph" transform="scale(1 1) rotate(0) translate(4 408)">
<title>state transitions</title>
<polygon fill="#ffffff" stroke="transparent" points="-4,4 -4,-408 818,-408 818,4 -4,4"/>
<g id="clust1" class="cluster state regular">
<title>cluster_state</title>
<path fill="none" stroke="#000000" stroke-width="2" d="M20,-8C20,-8 794,-8 794,-8 800,-8 806,-14 806,-20 806,-20 806,-384 806,-384 806,-390 800,-396 794,-396 794,-396 20,-396 20,-396 14,-396 8,-390 8,-384 8,-384 8,-20 8,-20 8,-14 14,-8 20,-8"/>
<text text-anchor="start" x="393.9944" y="-377.2" font-family="Helvetica,sans-Serif" font-size="12.00" fill="#000000">state</text>
</g>
<!-- state -->
<!-- S_READ_STRLEN -->
<g id="node2" class="node state regular">
<title>S_READ_STRLEN</title>
<polygon fill="#ffffff" fill-opacity="0.003922" stroke="transparent" stroke-width="2" points="349,-358 225,-358 225,-322 349,-322 349,-358"/>
<text text-anchor="start" x="235.9958" y="-336.2" font-family="Helvetica,sans-Serif" font-size="12.00" fill="#000000">S_READ_STRLEN</text>
<path fill="none" stroke="#000000" stroke-width="2" d="M237.3333,-323C237.3333,-323 336.6667,-323 336.6667,-323 342.3333,-323 348,-328.6667 348,-334.3333 348,-334.3333 348,-345.6667 348,-345.6667 348,-351.3333 342.3333,-357 336.6667,-357 336.6667,-357 237.3333,-357 237.3333,-357 231.6667,-357 226,-351.3333 226,-345.6667 226,-345.6667 226,-334.3333 226,-334.3333 226,-328.6667 231.6667,-323 237.3333,-323"/>
</g>
<!-- S_READ_STRLEN&#45;&gt;S_READ_STRLEN -->
<g id="edge1" class="edge transition">
<title>S_READ_STRLEN&#45;&gt;S_READ_STRLEN</title>
<path fill="none" stroke="#000000" d="M349.2751,-342.3445C361.9347,-342.0891 371,-341.3076 371,-340 371,-339.0806 366.5183,-338.4213 359.4566,-338.022"/>
<polygon fill="#000000" stroke="#000000" points="359.3946,-334.5176 349.2751,-337.6555 359.1427,-341.5131 359.3946,-334.5176"/>
<text text-anchor="start" x="371" y="-337" font-family="Helvetica,sans-Serif" font-size="10.00" fill="#000000">cnt == 4 &#160;&#160;</text>
</g>
<!-- S_READ_STRLEN&#45;&gt;S_READ_STRLEN -->
<g id="edge3" class="edge transition">
<title>S_READ_STRLEN&#45;&gt;S_READ_STRLEN</title>
<path fill="none" stroke="#000000" d="M349.2342,-344.7176C383.0663,-345.4065 415.47,-343.834 415.47,-340 415.47,-336.5554 389.3141,-334.9362 359.4657,-335.1425"/>
<polygon fill="#000000" stroke="#000000" points="359.1853,-331.6459 349.2342,-335.2824 359.2811,-338.6452 359.1853,-331.6459"/>
<text text-anchor="start" x="415.47" y="-337" font-family="Helvetica,sans-Serif" font-size="10.00" fill="#000000">not (cnt == 4) &#160;&#160;</text>
</g>
<!-- S_SHOW_CHAR -->
<g id="node3" class="node state regular">
<title>S_SHOW_CHAR</title>
<polygon fill="#ffffff" fill-opacity="0.003922" stroke="transparent" stroke-width="2" points="344,-264 230,-264 230,-228 344,-228 344,-264"/>
<text text-anchor="start" x="240.6686" y="-242.2" font-family="Helvetica,sans-Serif" font-size="12.00" fill="#000000">S_SHOW_CHAR</text>
<path fill="none" stroke="#000000" stroke-width="2" d="M242.3333,-229C242.3333,-229 331.6667,-229 331.6667,-229 337.3333,-229 343,-234.6667 343,-240.3333 343,-240.3333 343,-251.6667 343,-251.6667 343,-257.3333 337.3333,-263 331.6667,-263 331.6667,-263 242.3333,-263 242.3333,-263 236.6667,-263 231,-257.3333 231,-251.6667 231,-251.6667 231,-240.3333 231,-240.3333 231,-234.6667 236.6667,-229 242.3333,-229"/>
</g>
<!-- S_READ_STRLEN&#45;&gt;S_SHOW_CHAR -->
<g id="edge2" class="edge transition">
<title>S_READ_STRLEN&#45;&gt;S_SHOW_CHAR</title>
<path fill="none" stroke="#000000" d="M224.803,-323.1071C209.767,-317.7267 196.7096,-311.4777 192.196,-305 179.5256,-286.816 197.0789,-273.1066 220.3882,-263.5019"/>
<polygon fill="#000000" stroke="#000000" points="221.8054,-266.7078 229.9178,-259.8931 219.3263,-260.1615 221.8054,-266.7078"/>
<text text-anchor="start" x="192" y="-296" font-family="Helvetica,sans-Serif" font-size="10.00" fill="#000000">not (cnt == 4) &#160;&#160;</text>
</g>
<!-- S_SHOW_CHAR&#45;&gt;S_READ_STRLEN -->
<g id="edge4" class="edge transition">
<title>S_SHOW_CHAR&#45;&gt;S_READ_STRLEN</title>
<path fill="none" stroke="#000000" d="M287,-264.0685C287,-277.5785 287,-296.3082 287,-311.785"/>
<polygon fill="#000000" stroke="#000000" points="283.5001,-311.8758 287,-321.8759 290.5001,-311.8759 283.5001,-311.8758"/>
<text text-anchor="start" x="287" y="-296" font-family="Helvetica,sans-Serif" font-size="10.00" fill="#000000">ram_addr &gt;= str_len &#160;&#160;</text>
</g>
<!-- S_SHOW_CHAR&#45;&gt;S_READ_STRLEN -->
<g id="edge5" class="edge transition">
<title>S_SHOW_CHAR&#45;&gt;S_READ_STRLEN</title>
<path fill="none" stroke="#000000" d="M344.0861,-257.6172C376.01,-266.8768 406.3813,-282.1323 390,-305 385.489,-311.2972 373.293,-317.1525 358.8004,-322.2025"/>
<polygon fill="#000000" stroke="#000000" points="357.4226,-318.9704 349.0027,-325.4013 359.5952,-325.6247 357.4226,-318.9704"/>
<text text-anchor="start" x="394" y="-296" font-family="Helvetica,sans-Serif" font-size="10.00" fill="#000000">char_next &amp;&amp; (ram_addr == str_len &#45; 1) &amp;&amp; (row_cnt == CHAR_PIC_HEIGHT &#45; 1) &#160;&#160;</text>
</g>
<!-- S_SHOW_CHAR&#45;&gt;S_SHOW_CHAR -->
<g id="edge9" class="edge transition">
<title>S_SHOW_CHAR&#45;&gt;S_SHOW_CHAR</title>
<path fill="none" stroke="#000000" d="M344.1662,-252.9332C356.7992,-252.2818 366,-249.9707 366,-246 366,-243.2081 361.4513,-241.2367 354.3591,-240.0858"/>
<polygon fill="#000000" stroke="#000000" points="354.4648,-236.579 344.1662,-239.0668 353.7684,-243.5443 354.4648,-236.579"/>
<text text-anchor="start" x="366" y="-267" font-family="Helvetica,sans-Serif" font-size="10.00" fill="#000000">not (ram_addr &gt;= str_len) &#160;&#160;</text>
<text text-anchor="start" x="366" y="-255" font-family="Helvetica,sans-Serif" font-size="10.00" fill="#000000">not (char_next &amp;&amp; (ram_addr == str_len &#45; 1) &amp;&amp; (row_cnt == CHAR_PIC_HEIGHT &#45; 1)) &#160;&#160;</text>
<text text-anchor="start" x="366" y="-243" font-family="Helvetica,sans-Serif" font-size="10.00" fill="#000000">not (ram_data == ASCII_LF) &#160;&#160;</text>
<text text-anchor="start" x="366" y="-231" font-family="Helvetica,sans-Serif" font-size="10.00" fill="#000000">not (ram_data == ASCII_CR) &#160;&#160;</text>
<text text-anchor="start" x="366" y="-219" font-family="Helvetica,sans-Serif" font-size="10.00" fill="#000000">not ((char_next &amp;&amp; char_valid) || (ram_data == ASCII_SPACE)) &#160;&#160;</text>
</g>
<!-- S_WAIT_CHAR -->
<g id="node4" class="node state regular">
<title>S_WAIT_CHAR</title>
<polygon fill="#ffffff" fill-opacity="0.003922" stroke="transparent" stroke-width="2" points="301.5,-52 194.5,-52 194.5,-16 301.5,-16 301.5,-52"/>
<text text-anchor="start" x="205.8346" y="-30.2" font-family="Helvetica,sans-Serif" font-size="12.00" fill="#000000">S_WAIT_CHAR</text>
<path fill="none" stroke="#000000" stroke-width="2" d="M206.8333,-17C206.8333,-17 289.1667,-17 289.1667,-17 294.8333,-17 300.5,-22.6667 300.5,-28.3333 300.5,-28.3333 300.5,-39.6667 300.5,-39.6667 300.5,-45.3333 294.8333,-51 289.1667,-51 289.1667,-51 206.8333,-51 206.8333,-51 201.1667,-51 195.5,-45.3333 195.5,-39.6667 195.5,-39.6667 195.5,-28.3333 195.5,-28.3333 195.5,-22.6667 201.1667,-17 206.8333,-17"/>
</g>
<!-- S_SHOW_CHAR&#45;&gt;S_WAIT_CHAR -->
<g id="edge8" class="edge transition">
<title>S_SHOW_CHAR&#45;&gt;S_WAIT_CHAR</title>
<path fill="none" stroke="#000000" d="M229.8744,-243.8072C156.3611,-239.396 38,-226.2061 38,-187 38,-187 38,-187 38,-87 38,-56.457 122.569,-43.3352 184.373,-37.8238"/>
<polygon fill="#000000" stroke="#000000" points="184.7944,-41.3008 194.4648,-36.9724 184.2059,-34.3255 184.7944,-41.3008"/>
<text text-anchor="start" x="38" y="-137" font-family="Helvetica,sans-Serif" font-size="10.00" fill="#000000">(char_next &amp;&amp; char_valid) || (ram_data == ASCII_SPACE) &#160;&#160;</text>
</g>
<!-- S_LF -->
<g id="node5" class="node state regular">
<title>S_LF</title>
<polygon fill="#ffffff" fill-opacity="0.003922" stroke="transparent" stroke-width="2" points="691,-52 635,-52 635,-16 691,-16 691,-52"/>
<text text-anchor="start" x="648.6624" y="-30.2" font-family="Helvetica,sans-Serif" font-size="12.00" fill="#000000">S_LF</text>
<path fill="none" stroke="#000000" stroke-width="2" d="M647.3333,-17C647.3333,-17 678.6667,-17 678.6667,-17 684.3333,-17 690,-22.6667 690,-28.3333 690,-28.3333 690,-39.6667 690,-39.6667 690,-45.3333 684.3333,-51 678.6667,-51 678.6667,-51 647.3333,-51 647.3333,-51 641.6667,-51 636,-45.3333 636,-39.6667 636,-39.6667 636,-28.3333 636,-28.3333 636,-22.6667 641.6667,-17 647.3333,-17"/>
</g>
<!-- S_SHOW_CHAR&#45;&gt;S_LF -->
<g id="edge6" class="edge transition">
<title>S_SHOW_CHAR&#45;&gt;S_LF</title>
<path fill="none" stroke="#000000" d="M344.2267,-241.2998C431.0596,-233.6195 587.9654,-217.3808 606,-199 630.163,-174.3731 594.7723,-149.312 615.853,-122 628.1944,-106.0105 646.1189,-121.3344 658,-105 666.8041,-92.8959 668.3963,-76.3513 667.6302,-62.2779"/>
<polygon fill="#000000" stroke="#000000" points="671.0946,-61.7365 666.6651,-52.1121 664.126,-62.3981 671.0946,-61.7365"/>
<text text-anchor="start" x="615" y="-137" font-family="Helvetica,sans-Serif" font-size="10.00" fill="#000000">ram_data == ASCII_LF &#160;&#160;</text>
</g>
<!-- S_CR -->
<g id="node6" class="node state regular">
<title>S_CR</title>
<polygon fill="#ffffff" fill-opacity="0.003922" stroke="transparent" stroke-width="2" points="470,-158 414,-158 414,-122 470,-122 470,-158"/>
<text text-anchor="start" x="426.0004" y="-136.2" font-family="Helvetica,sans-Serif" font-size="12.00" fill="#000000">S_CR</text>
<path fill="none" stroke="#000000" stroke-width="2" d="M426.3333,-123C426.3333,-123 457.6667,-123 457.6667,-123 463.3333,-123 469,-128.6667 469,-134.3333 469,-134.3333 469,-145.6667 469,-145.6667 469,-151.3333 463.3333,-157 457.6667,-157 457.6667,-157 426.3333,-157 426.3333,-157 420.6667,-157 415,-151.3333 415,-145.6667 415,-145.6667 415,-134.3333 415,-134.3333 415,-128.6667 420.6667,-123 426.3333,-123"/>
</g>
<!-- S_SHOW_CHAR&#45;&gt;S_CR -->
<g id="edge7" class="edge transition">
<title>S_SHOW_CHAR&#45;&gt;S_CR</title>
<path fill="none" stroke="#000000" d="M285.6386,-227.9109C285.4821,-211.7498 288.0517,-188.588 302.083,-175 332.8697,-145.1861 355.799,-169.7969 397,-158 399.4066,-157.3109 401.8615,-156.5389 404.3211,-155.7126"/>
<polygon fill="#000000" stroke="#000000" points="405.5185,-159.0015 413.7381,-152.3164 403.1437,-152.4166 405.5185,-159.0015"/>
<text text-anchor="start" x="302" y="-184" font-family="Helvetica,sans-Serif" font-size="10.00" fill="#000000">ram_data == ASCII_CR &#160;&#160;</text>
</g>
<!-- S_WAIT_CHAR&#45;&gt;S_SHOW_CHAR -->
<g id="edge10" class="edge transition">
<title>S_WAIT_CHAR&#45;&gt;S_SHOW_CHAR</title>
<path fill="none" stroke="#000000" d="M248.1573,-52.1364C249.2319,-67.8824 253.152,-90.3895 266,-105 279.5707,-120.4323 297.4447,-105.006 309,-122 317.9966,-135.231 316.4849,-143.8587 309,-158 302.7142,-169.8757 290.6533,-163.3262 284,-175 276.6979,-187.8122 276.8688,-204.1389 279.1261,-217.9048"/>
<polygon fill="#000000" stroke="#000000" points="275.7252,-218.743 281.1697,-227.8319 282.5814,-217.3315 275.7252,-218.743"/>
<text text-anchor="start" x="315" y="-137" font-family="Helvetica,sans-Serif" font-size="10.00" fill="#000000">cnt == 1 &#160;&#160;</text>
</g>
<!-- S_WAIT_CHAR&#45;&gt;S_WAIT_CHAR -->
<g id="edge11" class="edge transition">
<title>S_WAIT_CHAR&#45;&gt;S_WAIT_CHAR</title>
<path fill="none" stroke="#000000" d="M301.6104,-38.7786C314.2069,-38.3858 323.5,-36.793 323.5,-34 323.5,-32.0362 318.9056,-30.6657 311.799,-29.8885"/>
<polygon fill="#000000" stroke="#000000" points="311.8177,-26.3823 301.6104,-29.2214 311.3603,-33.3674 311.8177,-26.3823"/>
<text text-anchor="start" x="323.5" y="-31" font-family="Helvetica,sans-Serif" font-size="10.00" fill="#000000">not (cnt == 1) &#160;&#160;</text>
</g>
<!-- S_LF&#45;&gt;S_SHOW_CHAR -->
<g id="edge12" class="edge transition">
<title>S_LF&#45;&gt;S_SHOW_CHAR</title>
<path fill="none" stroke="#000000" d="M691.2941,-38.3183C718.0074,-44.1907 754,-57.5647 754,-87 754,-187 754,-187 754,-187 754,-226.7831 483.7988,-240.1809 354.4538,-244.3153"/>
<polygon fill="#000000" stroke="#000000" points="354.1501,-240.8229 344.2634,-244.6311 354.367,-247.8196 354.1501,-240.8229"/>
<text text-anchor="start" x="754" y="-137" font-family="Helvetica,sans-Serif" font-size="10.00" fill="#000000">cnt == 1 &#160;&#160;</text>
</g>
<!-- S_LF&#45;&gt;S_LF -->
<g id="edge13" class="edge transition">
<title>S_LF&#45;&gt;S_LF</title>
<path fill="none" stroke="#000000" d="M691.0183,-38.8247C702.888,-39.1883 713,-37.5801 713,-34 713,-31.5387 708.2205,-30.0094 701.3762,-29.4121"/>
<polygon fill="#000000" stroke="#000000" points="701.0957,-25.9049 691.0183,-29.1753 700.9356,-32.903 701.0957,-25.9049"/>
<text text-anchor="start" x="713" y="-31" font-family="Helvetica,sans-Serif" font-size="10.00" fill="#000000">not (cnt == 1) &#160;&#160;</text>
</g>
<!-- S_CR&#45;&gt;S_SHOW_CHAR -->
<g id="edge15" class="edge transition">
<title>S_CR&#45;&gt;S_SHOW_CHAR</title>
<path fill="none" stroke="#000000" d="M438.3644,-158.2156C434.9048,-171.1701 428.467,-188.1347 417,-199 399.7002,-215.392 376.2604,-226.139 354.0472,-233.154"/>
<polygon fill="#000000" stroke="#000000" points="352.893,-229.8452 344.2902,-236.0293 354.8718,-236.5598 352.893,-229.8452"/>
<text text-anchor="start" x="432" y="-190" font-family="Helvetica,sans-Serif" font-size="10.00" fill="#000000">row_cnt == CHAR_PIC_HEIGHT &#45; 1 &#160;&#160;</text>
<text text-anchor="start" x="432" y="-178" font-family="Helvetica,sans-Serif" font-size="10.00" fill="#000000">cnt == 2 &#160;&#160;</text>
</g>
<!-- S_CR&#45;&gt;S_WAIT_CHAR -->
<g id="edge16" class="edge transition">
<title>S_CR&#45;&gt;S_WAIT_CHAR</title>
<path fill="none" stroke="#000000" d="M413.7184,-127.7512C408.2364,-125.6447 402.4885,-123.6168 397,-122 359.1065,-110.8373 343.9675,-124.7544 309.758,-105 291.3086,-94.3463 275.63,-76.123 264.6866,-60.8064"/>
<polygon fill="#000000" stroke="#000000" points="267.3384,-58.4835 258.8054,-52.2034 261.5596,-62.434 267.3384,-58.4835"/>
<text text-anchor="start" x="309" y="-96" font-family="Helvetica,sans-Serif" font-size="10.00" fill="#000000">not (ram_data == ASCII_LF) &#160;&#160;</text>
<text text-anchor="start" x="309" y="-84" font-family="Helvetica,sans-Serif" font-size="10.00" fill="#000000">not (row_cnt == CHAR_PIC_HEIGHT &#45; 1) &#160;&#160;</text>
<text text-anchor="start" x="309" y="-72" font-family="Helvetica,sans-Serif" font-size="10.00" fill="#000000">cnt == 2 &#160;&#160;</text>
</g>
<!-- S_CR&#45;&gt;S_LF -->
<g id="edge14" class="edge transition">
<title>S_CR&#45;&gt;S_LF</title>
<path fill="none" stroke="#000000" d="M470.2747,-125.1562C480.8025,-119.2749 492.6907,-112.2024 503,-105 523.3911,-90.7541 523.9585,-80.8056 545.853,-69 570.591,-55.6612 601.0772,-46.7576 624.7479,-41.2695"/>
<polygon fill="#000000" stroke="#000000" points="625.7593,-44.6305 634.7679,-39.0542 624.2481,-37.7955 625.7593,-44.6305"/>
<text text-anchor="start" x="545" y="-90" font-family="Helvetica,sans-Serif" font-size="10.00" fill="#000000">ram_data == ASCII_LF &#160;&#160;</text>
<text text-anchor="start" x="545" y="-78" font-family="Helvetica,sans-Serif" font-size="10.00" fill="#000000">cnt == 2 &#160;&#160;</text>
</g>
<!-- S_CR&#45;&gt;S_CR -->
<g id="edge17" class="edge transition">
<title>S_CR&#45;&gt;S_CR</title>
<path fill="none" stroke="#000000" d="M470.0183,-144.8247C481.888,-145.1883 492,-143.5801 492,-140 492,-137.5387 487.2205,-136.0094 480.3762,-135.4121"/>
<polygon fill="#000000" stroke="#000000" points="480.0957,-131.9049 470.0183,-135.1753 479.9356,-138.903 480.0957,-131.9049"/>
<text text-anchor="start" x="492" y="-137" font-family="Helvetica,sans-Serif" font-size="10.00" fill="#000000">not (cnt == 2) &#160;&#160;</text>
</g>
</g>
</svg>
