<?xml version="1.0" encoding="UTF-8" standalone="no"?>
<!DOCTYPE svg PUBLIC "-//W3C//DTD SVG 1.1//EN"
 "http://www.w3.org/Graphics/SVG/1.1/DTD/svg11.dtd">
<!-- Generated by graphviz version 2.40.1 (20161225.0304)
 -->
<!-- Title: state transitions Pages: 1 -->
<svg width="746pt" height="282pt"
 viewBox="0.00 0.00 746.00 282.00" xmlns="http://www.w3.org/2000/svg" xmlns:xlink="http://www.w3.org/1999/xlink">
<g id="graph0" class="graph" transform="scale(1 1) rotate(0) translate(4 278)">
<title>state transitions</title>
<polygon fill="#ffffff" stroke="transparent" points="-4,4 -4,-278 742,-278 742,4 -4,4"/>
<g id="clust1" class="cluster state regular">
<title>cluster_state</title>
<path fill="none" stroke="#000000" stroke-width="2" d="M20,-8C20,-8 718,-8 718,-8 724,-8 730,-14 730,-20 730,-20 730,-254 730,-254 730,-260 724,-266 718,-266 718,-266 20,-266 20,-266 14,-266 8,-260 8,-254 8,-254 8,-20 8,-20 8,-14 14,-8 20,-8"/>
<text text-anchor="start" x="355.9944" y="-247.2" font-family="Helvetica,sans-Serif" font-size="12.00" fill="#000000">state</text>
</g>
<!-- state -->
<!-- ST_IDLE -->
<g id="node2" class="node state regular">
<title>ST_IDLE</title>
<polygon fill="#ffffff" fill-opacity="0.003922" stroke="transparent" stroke-width="2" points="221,-228 151,-228 151,-192 221,-192 221,-228"/>
<text text-anchor="start" x="161.6622" y="-206.2" font-family="Helvetica,sans-Serif" font-size="12.00" fill="#000000">ST_IDLE</text>
<path fill="none" stroke="#000000" stroke-width="2" d="M163.3333,-193C163.3333,-193 208.6667,-193 208.6667,-193 214.3333,-193 220,-198.6667 220,-204.3333 220,-204.3333 220,-215.6667 220,-215.6667 220,-221.3333 214.3333,-227 208.6667,-227 208.6667,-227 163.3333,-227 163.3333,-227 157.6667,-227 152,-221.3333 152,-215.6667 152,-215.6667 152,-204.3333 152,-204.3333 152,-198.6667 157.6667,-193 163.3333,-193"/>
</g>
<!-- ST_IDLE&#45;&gt;ST_IDLE -->
<g id="edge2" class="edge transition">
<title>ST_IDLE&#45;&gt;ST_IDLE</title>
<path fill="none" stroke="#000000" d="M221.0666,-214.8738C233.2008,-214.9254 243,-213.3008 243,-210 243,-207.6791 238.1554,-206.187 231.061,-205.5234"/>
<polygon fill="#000000" stroke="#000000" points="231.1978,-202.0262 221.0666,-205.1262 230.9197,-209.0207 231.1978,-202.0262"/>
<text text-anchor="start" x="243" y="-207" font-family="Helvetica,sans-Serif" font-size="10.00" fill="#000000">not (udp_rx_s_data_tvalid) &#160;&#160;</text>
</g>
<!-- ST_READ_DATA -->
<g id="node3" class="node state regular">
<title>ST_READ_DATA</title>
<polygon fill="#ffffff" fill-opacity="0.003922" stroke="transparent" stroke-width="2" points="132,-146 16,-146 16,-110 132,-110 132,-146"/>
<text text-anchor="start" x="26.9972" y="-124.2" font-family="Helvetica,sans-Serif" font-size="12.00" fill="#000000">ST_READ_DATA</text>
<path fill="none" stroke="#000000" stroke-width="2" d="M28.3333,-111C28.3333,-111 119.6667,-111 119.6667,-111 125.3333,-111 131,-116.6667 131,-122.3333 131,-122.3333 131,-133.6667 131,-133.6667 131,-139.3333 125.3333,-145 119.6667,-145 119.6667,-145 28.3333,-145 28.3333,-145 22.6667,-145 17,-139.3333 17,-133.6667 17,-133.6667 17,-122.3333 17,-122.3333 17,-116.6667 22.6667,-111 28.3333,-111"/>
</g>
<!-- ST_IDLE&#45;&gt;ST_READ_DATA -->
<g id="edge1" class="edge transition">
<title>ST_IDLE&#45;&gt;ST_READ_DATA</title>
<path fill="none" stroke="#000000" d="M161.1436,-191.8015C145.1933,-180.1237 124.3005,-164.8272 106.9708,-152.1393"/>
<polygon fill="#000000" stroke="#000000" points="108.9232,-149.231 98.7869,-146.1476 104.788,-154.879 108.9232,-149.231"/>
<text text-anchor="start" x="137" y="-166" font-family="Helvetica,sans-Serif" font-size="10.00" fill="#000000">udp_rx_s_data_tvalid &#160;&#160;</text>
</g>
<!-- ST_READ_DATA&#45;&gt;ST_READ_DATA -->
<g id="edge4" class="edge transition">
<title>ST_READ_DATA&#45;&gt;ST_READ_DATA</title>
<path fill="none" stroke="#000000" d="M132.2476,-130.3655C144.8561,-130.1342 154,-129.3457 154,-128 154,-127.0538 149.4794,-126.3831 142.4124,-125.9878"/>
<polygon fill="#000000" stroke="#000000" points="142.3631,-122.4841 132.2476,-125.6345 142.1199,-129.4799 142.3631,-122.4841"/>
<text text-anchor="start" x="154" y="-131" font-family="Helvetica,sans-Serif" font-size="10.00" fill="#000000">not (cnt == data_size &#45; 1) &#160;&#160;</text>
<text text-anchor="start" x="154" y="-119" font-family="Helvetica,sans-Serif" font-size="10.00" fill="#000000">udp_rx_s_data_tvalid &amp;&amp; udp_rx_s_data_tready &#160;&#160;</text>
</g>
<!-- ST_READ_DATA&#45;&gt;ST_READ_DATA -->
<g id="edge5" class="edge transition">
<title>ST_READ_DATA&#45;&gt;ST_READ_DATA</title>
<path fill="none" stroke="#000000" d="M132.0216,-131.5592C221.1925,-134.1249 375.749,-132.9385 375.749,-128 375.749,-123.2448 232.4507,-121.9684 142.2077,-124.1707"/>
<polygon fill="#000000" stroke="#000000" points="141.9253,-120.6769 132.0216,-124.4408 142.1109,-127.6744 141.9253,-120.6769"/>
<text text-anchor="start" x="375.749" y="-125" font-family="Helvetica,sans-Serif" font-size="10.00" fill="#000000">not (udp_rx_s_data_tvalid &amp;&amp; udp_rx_s_data_tready) &#160;&#160;</text>
</g>
<!-- ST_WRITE_STRLEN -->
<g id="node4" class="node state regular">
<title>ST_WRITE_STRLEN</title>
<polygon fill="#ffffff" fill-opacity="0.003922" stroke="transparent" stroke-width="2" points="395,-52 259,-52 259,-16 395,-16 395,-52"/>
<text text-anchor="start" x="269.667" y="-30.2" font-family="Helvetica,sans-Serif" font-size="12.00" fill="#000000">ST_WRITE_STRLEN</text>
<path fill="none" stroke="#000000" stroke-width="2" d="M271.3333,-17C271.3333,-17 382.6667,-17 382.6667,-17 388.3333,-17 394,-22.6667 394,-28.3333 394,-28.3333 394,-39.6667 394,-39.6667 394,-45.3333 388.3333,-51 382.6667,-51 382.6667,-51 271.3333,-51 271.3333,-51 265.6667,-51 260,-45.3333 260,-39.6667 260,-39.6667 260,-28.3333 260,-28.3333 260,-22.6667 265.6667,-17 271.3333,-17"/>
</g>
<!-- ST_READ_DATA&#45;&gt;ST_WRITE_STRLEN -->
<g id="edge3" class="edge transition">
<title>ST_READ_DATA&#45;&gt;ST_WRITE_STRLEN</title>
<path fill="none" stroke="#000000" d="M122.4816,-109.9871C164.1878,-94.4915 224.4564,-72.0992 268.7689,-55.6353"/>
<polygon fill="#000000" stroke="#000000" points="270.0969,-58.8757 278.2518,-52.112 267.6589,-52.314 270.0969,-58.8757"/>
<text text-anchor="start" x="231" y="-84" font-family="Helvetica,sans-Serif" font-size="10.00" fill="#000000">cnt == data_size &#45; 1 &#160;&#160;</text>
<text text-anchor="start" x="231" y="-72" font-family="Helvetica,sans-Serif" font-size="10.00" fill="#000000">udp_rx_s_data_tvalid &amp;&amp; udp_rx_s_data_tready &#160;&#160;</text>
</g>
<!-- ST_WRITE_STRLEN&#45;&gt;ST_IDLE -->
<g id="edge6" class="edge transition">
<title>ST_WRITE_STRLEN&#45;&gt;ST_IDLE</title>
<path fill="none" stroke="#000000" d="M395.0925,-36.369C497.1653,-40.8438 678,-52.757 678,-81 678,-169 678,-169 678,-169 678,-191.2788 353.3922,-204.4157 231.5107,-208.5631"/>
<polygon fill="#000000" stroke="#000000" points="231.2604,-205.0694 221.3834,-208.9028 231.4952,-212.0655 231.2604,-205.0694"/>
<text text-anchor="start" x="678" y="-125" font-family="Helvetica,sans-Serif" font-size="10.00" fill="#000000">cnt == 1 &#160;&#160;</text>
</g>
<!-- ST_WRITE_STRLEN&#45;&gt;ST_WRITE_STRLEN -->
<g id="edge7" class="edge transition">
<title>ST_WRITE_STRLEN&#45;&gt;ST_WRITE_STRLEN</title>
<path fill="none" stroke="#000000" d="M395.2858,-38.6248C408.0269,-38.0553 417,-36.5137 417,-34 417,-32.2326 412.5638,-30.9457 405.5009,-30.1395"/>
<polygon fill="#000000" stroke="#000000" points="405.5191,-26.6311 395.2858,-29.3752 404.9968,-33.6116 405.5191,-26.6311"/>
<text text-anchor="start" x="417" y="-31" font-family="Helvetica,sans-Serif" font-size="10.00" fill="#000000">not (cnt == 1) &#160;&#160;</text>
</g>
</g>
</svg>
